{"glyphs":{"0":{"ha":694,"x_min":50,"x_max":644,"o":"m 347 939 q 544 824 460 939 q 644 460 644 689 q 544 96 644 231 q 347 -19 460 -19 q 150 96 235 -19 q 50 460 50 231 q 150 824 50 689 q 347 939 235 939 m 347 897 q 183 415 183 897 q 211 179 183 282 q 347 22 253 22 q 511 506 511 22 q 486 742 511 643 q 347 897 444 897 z "},"1":{"ha":694,"x_min":163,"x_max":525,"o":"m 163 829 l 386 939 l 410 939 l 410 182 q 424 61 410 86 q 525 25 444 25 l 525 0 l 179 0 l 179 25 q 278 47 258 26 q 297 146 297 67 l 297 699 q 293 779 297 758 q 243 829 282 829 q 172 808 217 829 l 163 829 z "},"2":{"ha":694,"x_min":29,"x_max":636,"o":"m 636 176 l 572 0 l 29 0 l 29 25 q 378 404 293 285 q 463 635 463 524 q 413 777 463 718 q 286 836 364 836 q 158 792 214 836 q 82 679 101 749 l 57 679 q 136 864 75 796 q 319 939 206 939 q 502 869 424 939 q 581 697 581 800 q 379 319 581 533 l 175 103 l 461 103 q 611 176 576 103 l 636 176 z "},"3":{"ha":694,"x_min":56,"x_max":579,"o":"m 211 456 l 211 476 q 358 543 300 490 q 421 689 421 601 q 378 802 421 758 q 265 846 336 846 q 92 733 158 846 l 71 744 q 317 939 142 939 q 489 867 429 939 q 533 750 533 813 q 407 544 533 647 q 579 301 579 478 q 493 83 579 172 q 211 -19 393 -19 q 56 54 56 -19 q 72 91 56 76 q 113 106 89 106 q 201 74 144 106 q 308 43 257 43 q 431 101 382 43 q 478 231 478 156 q 444 347 478 293 q 211 456 379 456 z "},"4":{"ha":694,"x_min":21,"x_max":646,"o":"m 646 339 l 646 242 l 522 242 l 522 0 l 410 0 l 410 242 l 21 242 l 21 329 l 449 939 l 522 939 l 522 339 l 646 339 m 410 339 l 410 792 l 407 792 l 88 339 l 410 339 z "},"5":{"ha":694,"x_min":67,"x_max":603,"o":"m 603 919 l 553 808 l 276 808 l 213 681 q 469 574 364 663 q 588 328 588 474 q 477 83 588 185 q 222 -19 367 -19 q 125 -1 168 -19 q 67 72 67 24 q 83 108 67 93 q 121 122 99 122 q 200 88 150 122 q 297 53 250 53 q 440 113 381 53 q 500 257 500 174 q 389 475 500 389 q 97 561 278 561 l 274 919 l 603 919 z "},"6":{"ha":694,"x_min":60,"x_max":640,"o":"m 622 939 l 622 914 q 353 785 469 908 q 213 513 249 672 q 407 581 303 581 q 579 494 513 581 q 640 307 640 417 q 561 83 640 181 q 353 -19 476 -19 q 132 110 214 -19 q 60 363 60 219 q 219 763 60 586 q 593 939 378 939 l 622 939 m 519 239 q 482 421 519 342 q 343 522 433 522 q 203 464 289 522 q 190 324 190 379 q 229 136 190 224 q 364 22 278 22 q 485 94 443 22 q 519 239 519 154 z "},"7":{"ha":694,"x_min":51,"x_max":632,"o":"m 139 919 l 632 919 l 632 894 l 326 -19 l 250 -19 l 525 808 l 264 808 q 151 783 193 808 q 71 694 108 758 l 51 701 l 139 919 z "},"8":{"ha":694,"x_min":83,"x_max":614,"o":"m 267 464 q 150 575 179 538 q 96 722 96 642 q 172 882 96 819 q 343 939 244 939 q 529 875 458 939 q 594 739 594 818 q 404 510 594 626 q 544 386 510 426 q 614 219 614 306 q 535 47 614 113 q 347 -19 457 -19 q 136 71 210 -19 q 83 206 83 136 q 267 464 83 333 m 372 535 q 461 628 440 596 q 497 749 497 679 q 457 858 497 819 q 346 897 417 897 q 242 863 286 897 q 193 767 193 825 q 256 635 193 699 q 372 535 314 585 m 297 438 q 188 214 188 353 q 232 79 188 131 q 358 22 278 22 q 470 60 424 22 q 517 160 517 97 q 469 278 517 218 q 297 438 421 338 z "},"9":{"ha":694,"x_min":54,"x_max":635,"o":"m 74 -19 l 74 6 q 342 131 226 6 q 482 403 440 239 q 288 335 379 335 q 115 421 181 335 q 54 610 54 500 q 132 835 54 739 q 342 939 215 939 q 563 811 479 939 q 635 554 635 699 q 486 169 635 344 q 96 -19 325 -19 l 74 -19 m 493 454 q 506 592 506 536 q 467 782 506 693 q 331 897 418 897 q 208 824 250 897 q 175 676 175 764 q 210 499 175 576 q 343 396 256 396 q 493 454 431 396 z "}," ":{"ha":347,"x_min":0,"x_max":0,"o":""},"!":{"ha":463,"x_min":153,"x_max":308,"o":"m 244 243 l 217 243 l 153 843 q 173 911 153 882 q 231 940 193 940 q 290 910 268 940 q 308 843 308 882 q 244 243 308 857 m 231 -19 q 178 3 200 -19 q 156 56 156 25 q 178 109 156 88 q 231 131 200 131 q 284 109 263 131 q 306 56 306 88 q 284 3 306 25 q 231 -19 263 -19 z "},"\"":{"ha":567,"x_min":92,"x_max":476,"o":"m 176 544 l 143 544 q 106 757 135 599 q 92 865 92 836 q 160 940 92 940 q 228 865 228 940 q 214 757 228 836 q 176 544 185 599 m 425 544 l 392 544 q 354 757 383 599 q 340 865 340 836 q 408 940 340 940 q 476 865 476 940 q 463 757 476 836 q 425 544 433 599 z "},"#":{"ha":694,"x_min":25,"x_max":669,"o":"m 75 -21 l 139 290 l 25 290 l 25 346 l 150 346 l 197 574 l 25 574 l 25 629 l 208 629 l 272 940 l 329 940 l 265 629 l 499 629 l 563 940 l 619 940 l 556 629 l 669 629 l 669 574 l 544 574 l 497 346 l 669 346 l 669 290 l 486 290 l 422 -21 l 365 -21 l 429 290 l 196 290 l 132 -21 l 75 -21 m 207 346 l 440 346 l 488 574 l 254 574 l 207 346 z "},"$":{"ha":694,"x_min":72,"x_max":622,"o":"m 356 890 l 356 542 q 574 368 529 419 q 622 226 622 311 q 541 53 622 124 q 356 -19 460 -17 l 356 -106 l 313 -106 l 313 -19 q 72 35 190 -15 l 72 226 l 101 226 q 165 83 106 139 q 313 25 224 28 l 313 421 q 72 713 72 554 q 146 869 72 808 q 313 935 214 926 l 313 997 l 356 997 l 356 935 q 579 875 436 933 l 579 672 l 553 672 q 356 890 539 872 m 356 393 l 356 25 q 469 80 422 32 q 515 194 515 128 q 465 304 515 253 q 356 393 443 328 m 313 569 l 313 890 q 217 848 254 885 q 179 753 179 811 q 313 569 179 663 z "},"%":{"ha":1157,"x_min":47,"x_max":1110,"o":"m 243 939 q 389 861 335 939 q 439 690 439 790 q 389 521 439 590 q 243 442 335 442 q 97 521 151 442 q 47 690 47 590 q 97 861 47 790 q 243 939 151 939 m 244 903 q 156 689 156 903 q 242 478 156 478 q 331 692 331 478 q 244 903 331 903 m 914 478 q 1060 400 1006 478 q 1110 229 1110 329 q 1060 60 1110 129 q 914 -19 1006 -19 q 768 60 822 -19 q 718 229 718 129 q 768 400 718 329 q 914 478 822 478 m 915 442 q 826 228 826 442 q 913 17 826 17 q 1001 231 1001 17 q 915 442 1001 442 m 942 940 l 285 -21 l 224 -21 l 881 940 l 942 940 z "},"&":{"ha":1081,"x_min":49,"x_max":1036,"o":"m 1011 183 l 1036 165 q 964 32 1018 81 q 822 -21 906 -21 q 588 111 708 -21 q 289 -21 440 -21 q 124 31 193 -21 q 49 181 49 88 q 329 514 49 364 q 275 718 275 635 q 342 878 275 815 q 508 940 410 940 q 639 897 586 940 q 693 774 693 850 q 618 624 693 690 q 469 531 571 581 q 650 250 554 367 q 769 489 769 389 q 751 542 769 517 q 707 567 733 567 l 707 592 l 990 592 l 990 567 q 899 536 932 567 q 842 454 882 521 q 682 210 792 374 q 888 83 789 83 q 1011 183 988 83 m 447 575 q 614 779 614 649 q 585 858 614 825 q 513 890 557 890 q 426 855 461 890 q 390 767 390 819 q 447 575 390 686 m 553 150 q 353 468 472 243 q 189 243 189 383 q 238 115 189 168 q 358 61 286 61 q 464 88 414 61 q 553 150 483 99 z "},"'":{"ha":250,"x_min":57,"x_max":193,"o":"m 142 544 l 108 544 q 71 757 100 599 q 57 865 57 836 q 125 940 57 940 q 193 865 193 940 q 179 757 193 836 q 142 544 150 599 z "},"(":{"ha":463,"x_min":57,"x_max":432,"o":"m 432 964 l 432 935 q 188 332 188 801 q 432 -271 188 -137 l 432 -300 q 154 -39 251 -204 q 57 332 57 126 q 154 703 57 538 q 432 964 251 868 z "},")":{"ha":463,"x_min":31,"x_max":406,"o":"m 31 -300 l 31 -271 q 275 332 275 -137 q 31 935 275 801 l 31 964 q 308 703 211 868 q 406 332 406 538 q 308 -39 406 126 q 31 -300 211 -204 z "},"*":{"ha":694,"x_min":99,"x_max":596,"o":"m 321 683 q 239 710 301 697 q 144 736 168 724 q 99 797 99 757 q 114 832 99 818 q 150 846 129 846 q 247 788 194 846 q 335 708 311 719 q 313 806 335 746 q 292 890 292 867 q 347 964 292 964 q 403 890 403 964 q 381 806 403 867 q 360 708 360 746 q 447 788 383 719 q 544 846 500 846 q 581 832 565 846 q 596 797 596 818 q 550 736 596 757 q 456 710 526 724 q 374 683 393 697 q 456 657 393 669 q 550 631 526 643 q 596 569 596 610 q 581 535 596 549 q 544 521 565 521 q 447 579 500 521 q 360 658 383 647 q 381 562 360 622 q 403 476 403 501 q 347 403 403 403 q 292 476 292 403 q 313 562 292 501 q 335 658 335 622 q 247 579 311 647 q 150 521 194 521 q 114 535 129 521 q 99 569 99 549 q 144 631 99 610 q 239 657 168 643 q 321 683 301 669 z "},"+":{"ha":783,"x_min":28,"x_max":757,"o":"m 364 96 l 364 433 l 28 433 l 28 489 l 364 489 l 364 826 l 419 826 l 419 489 l 757 489 l 757 433 l 419 433 l 419 96 l 364 96 z "},",":{"ha":347,"x_min":75,"x_max":276,"o":"m 75 -231 l 75 -201 q 177 -136 133 -185 q 221 -28 221 -87 q 203 0 221 0 q 181 -10 197 0 q 144 -19 158 -19 q 94 1 113 -19 q 75 54 75 22 q 101 113 75 89 q 163 136 126 136 q 247 89 215 136 q 276 -8 276 47 q 214 -151 276 -90 q 75 -231 160 -207 z "},"-":{"ha":463,"x_min":56,"x_max":407,"o":"m 56 365 l 407 365 l 407 258 l 56 258 l 56 365 z "},".":{"ha":347,"x_min":99,"x_max":249,"o":"m 174 -19 q 121 3 143 -19 q 99 56 99 25 q 121 109 99 88 q 174 131 143 131 q 227 109 206 131 q 249 56 249 88 q 227 3 249 25 q 174 -19 206 -19 z "},"/":{"ha":386,"x_min":0,"x_max":386,"o":"m 386 964 l 54 -19 l 0 -19 l 333 964 l 386 964 z "},":":{"ha":386,"x_min":118,"x_max":268,"o":"m 193 490 q 140 513 163 490 q 118 565 118 535 q 140 619 118 597 q 193 640 163 640 q 247 619 225 640 q 268 565 268 597 q 247 513 268 535 q 193 490 225 490 m 193 -19 q 140 3 163 -19 q 118 56 118 25 q 140 109 118 88 q 193 131 163 131 q 247 109 225 131 q 268 56 268 88 q 247 3 268 25 q 193 -19 225 -19 z "},";":{"ha":386,"x_min":94,"x_max":296,"o":"m 94 -231 l 94 -201 q 197 -136 153 -185 q 240 -28 240 -87 q 222 0 240 0 q 200 -10 217 0 q 164 -19 178 -19 q 113 1 132 -19 q 94 54 94 22 q 120 113 94 89 q 182 136 146 136 q 267 89 235 136 q 296 -8 296 47 q 233 -151 296 -90 q 94 -231 179 -207 m 193 490 q 140 513 163 490 q 118 565 118 535 q 140 619 118 597 q 193 640 163 640 q 247 619 225 640 q 268 565 268 597 q 247 513 268 535 q 193 490 225 490 z "},"<":{"ha":783,"x_min":28,"x_max":757,"o":"m 28 478 l 757 796 l 757 736 l 129 461 l 757 186 l 757 126 l 28 444 l 28 478 z "},"=":{"ha":783,"x_min":28,"x_max":757,"o":"m 28 599 l 757 599 l 757 543 l 28 543 l 28 599 m 28 379 l 757 379 l 757 324 l 28 324 l 28 379 z "},">":{"ha":783,"x_min":28,"x_max":757,"o":"m 757 444 l 28 126 l 28 186 l 656 461 l 28 736 l 28 796 l 757 478 l 757 444 z "},"?":{"ha":617,"x_min":60,"x_max":558,"o":"m 304 217 l 276 217 q 317 406 276 310 q 392 557 354 481 q 432 713 432 643 q 393 843 432 789 q 276 903 350 903 q 193 882 231 903 q 147 815 147 858 q 168 753 147 790 q 189 699 189 717 q 174 658 189 675 q 135 640 158 640 q 78 676 100 640 q 60 744 60 707 q 115 874 60 819 q 308 940 183 940 q 515 854 449 940 q 558 725 558 796 q 493 553 558 640 q 369 404 432 479 q 304 217 304 313 m 292 -19 q 239 3 261 -19 q 217 56 217 25 q 239 109 217 88 q 292 131 261 131 q 345 109 324 131 q 367 56 367 88 q 345 3 367 25 q 292 -19 324 -19 z "},"@":{"ha":1279,"x_min":68,"x_max":1247,"o":"m 957 649 l 842 249 q 815 122 815 157 q 868 71 815 71 q 1058 200 968 71 q 1153 508 1153 336 q 1029 813 1153 696 q 717 929 906 929 q 292 731 460 929 q 132 281 132 542 q 279 -106 132 47 q 660 -258 426 -258 q 992 -158 847 -258 q 1208 117 1136 -58 l 1247 117 q 1026 -185 1190 -69 q 663 -300 861 -300 q 237 -129 406 -300 q 68 299 68 42 q 251 769 68 574 q 708 964 435 964 q 1058 838 922 964 q 1194 499 1194 711 q 1097 181 1194 322 q 821 21 989 21 q 717 114 717 21 q 728 207 717 154 l 725 210 q 464 21 569 21 q 371 71 406 21 q 339 175 339 115 q 467 497 339 339 q 714 653 590 653 q 790 628 757 653 q 828 564 822 604 l 831 564 l 851 635 l 957 649 m 804 524 q 782 594 804 565 q 719 622 760 622 q 533 454 629 622 q 447 200 447 300 q 468 132 447 161 q 525 103 489 103 q 706 235 611 103 q 804 524 804 374 z "},"A":{"ha":1003,"x_min":14,"x_max":989,"o":"m 638 308 l 282 308 l 226 179 q 196 86 196 108 q 231 38 196 51 q 303 25 251 29 l 303 0 l 14 0 l 14 25 q 96 60 67 31 q 157 165 125 90 l 488 940 l 513 940 l 825 190 q 882 78 861 104 q 989 25 921 28 l 989 0 l 626 0 l 626 25 q 721 88 721 29 q 688 193 721 117 l 638 308 m 619 358 l 463 729 l 303 358 l 619 358 z "},"B":{"ha":926,"x_min":26,"x_max":851,"o":"m 157 176 l 157 743 q 140 863 157 839 q 26 894 118 894 l 26 919 l 451 919 q 728 844 633 919 q 808 672 808 779 q 763 545 808 599 q 646 471 717 492 l 646 468 q 789 401 731 457 q 851 256 851 340 q 790 97 851 163 q 497 0 700 0 l 26 0 l 26 25 q 140 57 118 25 q 157 176 157 81 m 288 858 l 288 506 q 440 496 336 496 q 629 567 571 496 q 667 678 667 614 q 583 829 667 776 q 407 874 513 874 q 288 858 342 874 m 288 443 l 288 68 q 444 50 360 50 q 614 93 546 50 q 696 240 696 144 q 601 406 696 351 q 404 450 525 450 q 288 443 325 450 z "},"C":{"ha":926,"x_min":51,"x_max":878,"o":"m 836 940 l 857 628 l 836 628 q 528 892 764 892 q 299 782 383 892 q 207 443 207 664 q 319 125 207 232 q 550 39 410 39 q 728 89 654 39 q 857 229 789 131 l 878 215 q 497 -21 749 -21 q 176 112 301 -21 q 51 442 51 244 q 181 793 51 650 q 522 939 315 939 q 718 890 619 939 q 758 876 746 876 q 813 940 800 876 l 836 940 z "},"D":{"ha":1003,"x_min":26,"x_max":951,"o":"m 157 176 l 157 743 q 140 863 157 839 q 26 894 118 894 l 26 919 l 382 919 q 767 843 653 919 q 951 464 951 719 q 828 138 951 264 q 454 0 693 0 l 26 0 l 26 25 q 140 57 118 25 q 157 176 157 81 m 288 850 l 288 68 q 432 50 364 50 q 703 172 603 50 q 796 460 796 285 q 701 750 796 638 q 426 869 601 869 q 288 850 357 869 z "},"E":{"ha":849,"x_min":26,"x_max":817,"o":"m 288 869 l 288 506 l 472 506 q 590 526 561 506 q 633 640 628 553 l 658 640 l 658 319 l 633 319 q 589 435 625 408 q 472 456 560 456 l 288 456 l 288 119 q 303 63 288 76 q 363 50 319 50 l 551 50 q 690 94 638 50 q 790 231 731 128 l 817 231 l 739 0 l 26 0 l 26 25 q 140 57 118 25 q 157 176 157 81 l 157 743 q 140 863 157 839 q 26 894 118 894 l 26 919 l 732 919 l 744 718 l 717 718 q 658 846 697 819 q 522 869 625 869 l 288 869 z "},"F":{"ha":772,"x_min":26,"x_max":718,"o":"m 288 869 l 288 507 l 438 507 q 544 533 515 507 q 575 635 574 558 l 600 635 l 600 324 l 575 324 q 544 426 574 400 q 438 451 515 451 l 288 451 l 288 176 q 304 57 288 81 q 418 25 326 25 l 418 0 l 26 0 l 26 25 q 140 57 118 25 q 157 176 157 81 l 157 743 q 140 863 157 839 q 26 894 118 894 l 26 919 l 710 919 l 718 718 l 694 718 q 618 846 667 815 q 474 869 578 869 l 288 869 z "},"G":{"ha":1003,"x_min":51,"x_max":985,"o":"m 881 347 l 881 60 q 564 -21 735 -21 q 156 150 293 -21 q 51 444 51 279 q 171 772 51 628 q 538 940 310 940 q 708 910 619 940 q 794 882 789 882 q 829 940 826 882 l 854 940 l 878 650 l 853 650 q 546 893 781 893 q 289 763 382 893 q 207 475 207 646 q 307 151 207 276 q 564 26 407 26 q 750 76 672 26 l 750 325 q 733 444 750 421 q 619 476 711 476 l 619 501 l 985 501 l 985 476 q 901 450 921 476 q 881 347 881 424 z "},"H":{"ha":1003,"x_min":26,"x_max":976,"o":"m 288 493 l 715 493 l 715 743 q 699 863 715 839 q 585 894 676 894 l 585 919 l 976 919 l 976 894 q 863 863 885 894 q 846 743 846 839 l 846 176 q 863 57 846 81 q 976 25 885 25 l 976 0 l 585 0 l 585 25 q 699 57 676 25 q 715 176 715 81 l 715 443 l 288 443 l 288 176 q 304 57 288 81 q 418 25 326 25 l 418 0 l 26 0 l 26 25 q 140 57 118 25 q 157 176 157 81 l 157 743 q 140 863 157 839 q 26 894 118 894 l 26 919 l 418 919 l 418 894 q 304 863 326 894 q 288 743 288 839 l 288 493 z "},"I":{"ha":463,"x_min":35,"x_max":426,"o":"m 296 743 l 296 176 q 313 57 296 81 q 426 25 335 25 l 426 0 l 35 0 l 35 25 q 149 57 126 25 q 165 176 165 81 l 165 743 q 149 863 165 839 q 35 894 126 894 l 35 919 l 426 919 l 426 894 q 313 863 335 894 q 296 743 296 839 z "},"J":{"ha":540,"x_min":31,"x_max":533,"o":"m 272 146 l 272 743 q 256 863 272 839 q 142 894 233 894 l 142 919 l 533 919 l 533 894 q 419 863 442 894 q 403 743 403 839 l 403 290 q 321 42 403 125 q 171 -21 258 -21 q 78 4 118 -21 q 31 82 31 32 q 100 154 31 154 q 171 90 143 154 q 226 26 199 26 q 272 146 272 26 z "},"K":{"ha":1003,"x_min":26,"x_max":1018,"o":"m 417 510 l 744 185 q 1018 25 901 29 l 1018 0 l 581 0 l 581 25 q 630 35 606 24 q 654 68 654 46 q 632 118 654 92 q 593 157 632 119 l 288 458 l 288 176 q 304 57 288 81 q 418 25 326 25 l 418 0 l 26 0 l 26 25 q 140 57 118 25 q 157 176 157 81 l 157 743 q 140 863 157 839 q 26 894 118 894 l 26 919 l 418 919 l 418 894 q 304 863 326 894 q 288 743 288 839 l 288 475 l 515 686 q 643 853 643 804 q 618 889 643 881 q 560 894 603 894 l 560 919 l 897 919 l 897 894 q 656 749 803 896 l 417 510 z "},"L":{"ha":849,"x_min":26,"x_max":817,"o":"m 288 729 l 288 181 q 296 94 288 115 q 350 60 308 60 l 556 60 q 697 103 642 60 q 794 254 751 146 l 817 250 l 738 0 l 26 0 l 26 25 q 140 57 118 25 q 157 176 157 81 l 157 743 q 140 863 157 839 q 26 894 118 894 l 26 919 l 442 919 l 442 894 q 307 858 333 894 q 288 729 288 833 z "},"M":{"ha":1235,"x_min":25,"x_max":1208,"o":"m 571 0 l 218 769 l 215 769 l 215 176 q 232 57 215 81 q 346 25 254 25 l 346 0 l 25 0 l 25 25 q 139 57 117 25 q 156 176 156 81 l 156 744 q 136 857 156 831 q 25 894 111 894 l 25 919 l 286 919 l 619 200 l 949 919 l 1208 919 l 1208 894 q 1094 863 1117 894 q 1078 743 1078 839 l 1078 176 q 1094 57 1078 81 q 1208 25 1117 25 l 1208 0 l 817 0 l 817 25 q 931 57 908 25 q 947 176 947 81 l 947 769 l 944 769 l 593 0 l 571 0 z "},"N":{"ha":1003,"x_min":-17,"x_max":986,"o":"m 225 724 l 225 176 q 242 57 225 81 q 356 25 264 25 l 356 0 l 35 0 l 35 25 q 149 57 126 25 q 165 176 165 81 l 165 799 q 90 869 124 850 q -17 894 49 894 l -17 919 l 233 919 l 793 232 l 796 232 l 796 743 q 779 863 796 839 q 665 894 757 894 l 665 919 l 986 919 l 986 894 q 872 863 894 894 q 856 743 856 839 l 856 -15 l 831 -15 l 228 724 l 225 724 z "},"O":{"ha":1003,"x_min":51,"x_max":951,"o":"m 501 -21 q 174 124 301 -21 q 51 460 51 261 q 174 796 51 658 q 501 940 301 940 q 829 796 701 940 q 951 460 951 658 q 829 124 951 261 q 501 -21 701 -21 m 501 29 q 735 167 658 29 q 796 460 796 279 q 735 753 796 640 q 501 890 658 890 q 269 753 344 890 q 207 460 207 640 q 269 167 207 279 q 501 29 344 29 z "},"P":{"ha":772,"x_min":26,"x_max":728,"o":"m 288 431 l 288 176 q 304 57 288 81 q 418 25 326 25 l 418 0 l 26 0 l 26 25 q 140 57 118 25 q 157 176 157 81 l 157 743 q 140 863 157 839 q 26 894 118 894 l 26 919 l 401 919 q 646 842 557 919 q 728 663 728 771 q 676 510 728 576 q 442 410 603 410 q 288 431 383 410 m 288 851 l 288 471 q 419 457 353 457 q 529 519 485 457 q 572 656 572 578 q 521 804 572 744 q 382 864 469 864 q 288 851 333 864 z "},"Q":{"ha":1003,"x_min":51,"x_max":951,"o":"m 946 -250 l 946 -275 q 381 -10 632 -261 q 136 168 221 47 q 51 460 51 289 q 174 796 51 658 q 501 940 301 940 q 829 796 701 940 q 951 460 951 658 q 863 167 951 294 q 614 -10 769 35 q 946 -250 739 -239 m 501 25 q 735 167 657 25 q 796 460 796 281 q 735 753 796 640 q 501 890 658 890 q 269 753 344 890 q 207 460 207 640 q 269 167 207 281 q 501 25 346 25 z "},"R":{"ha":926,"x_min":26,"x_max":940,"o":"m 940 0 l 694 0 l 382 429 l 288 429 l 288 176 q 304 57 288 81 q 418 25 326 25 l 418 0 l 26 0 l 26 25 q 140 57 118 25 q 157 176 157 81 l 157 743 q 140 863 157 839 q 26 894 118 894 l 26 919 l 425 919 q 686 831 604 919 q 744 681 744 768 q 676 524 744 586 q 517 447 615 468 l 696 197 q 796 79 758 110 q 940 25 854 32 l 940 0 m 288 857 l 288 474 l 318 474 q 503 517 432 474 q 589 675 589 568 q 537 815 589 760 q 401 869 485 869 q 288 857 372 869 z "},"S":{"ha":772,"x_min":90,"x_max":700,"o":"m 639 940 l 639 622 l 614 622 q 539 808 607 736 q 357 886 468 886 q 246 845 294 886 q 197 743 197 804 q 328 589 197 665 q 569 451 449 521 q 700 244 700 360 q 621 58 700 133 q 410 -21 539 -21 q 266 5 338 -21 q 165 31 194 31 q 124 -21 129 31 l 99 -21 l 99 294 l 124 294 q 238 81 138 149 q 396 33 307 33 q 522 71 471 33 q 579 183 579 111 q 453 349 579 269 q 217 486 335 418 q 90 694 90 578 q 171 869 90 799 q 363 940 251 940 q 483 914 413 940 q 567 888 553 888 q 614 940 603 888 l 639 940 z "},"T":{"ha":849,"x_min":39,"x_max":808,"o":"m 489 860 l 489 176 q 506 57 489 81 q 619 25 528 25 l 619 0 l 228 0 l 228 25 q 342 57 319 25 q 358 176 358 81 l 358 860 l 221 860 q 64 704 76 860 l 39 704 l 49 919 l 799 919 l 808 704 l 783 704 q 626 860 771 860 l 489 860 z "},"U":{"ha":1003,"x_min":13,"x_max":989,"o":"m 143 329 l 143 743 q 126 863 143 839 q 13 894 104 894 l 13 919 l 404 919 l 404 894 q 290 863 313 894 q 274 743 274 839 l 274 376 q 296 172 274 236 q 381 71 318 107 q 511 39 438 39 q 754 151 678 39 q 799 401 799 218 l 799 743 q 782 863 799 839 q 668 894 760 894 l 668 919 l 989 919 l 989 894 q 875 863 897 894 q 858 743 858 839 l 858 333 q 504 -21 858 -21 q 143 329 143 -21 z "},"V":{"ha":1003,"x_min":14,"x_max":988,"o":"m 553 188 l 764 706 q 801 825 801 797 q 704 894 801 885 l 704 919 l 988 919 l 988 894 q 894 843 931 889 q 843 746 871 815 l 529 -21 l 504 -21 l 167 756 q 115 854 132 835 q 14 894 83 890 l 14 919 l 390 919 l 390 894 q 322 882 338 888 q 288 829 288 867 q 326 711 288 801 l 553 188 z "},"W":{"ha":1311,"x_min":17,"x_max":1297,"o":"m 921 222 l 1090 704 q 1124 829 1124 799 q 1022 894 1124 894 l 1022 919 l 1297 919 l 1297 894 q 1204 847 1236 894 q 1161 744 1189 824 l 897 -21 l 871 -21 l 663 563 l 660 563 l 456 -21 l 428 -21 l 144 772 q 100 867 118 846 q 17 894 75 894 l 17 919 l 357 919 l 357 894 q 267 836 267 894 q 288 757 267 817 l 475 222 l 478 222 l 631 651 l 593 754 q 546 854 565 829 q 451 894 513 894 l 451 919 l 811 919 l 811 894 q 740 885 760 894 q 713 832 713 872 q 749 697 713 799 l 918 222 l 921 222 z "},"X":{"ha":1003,"x_min":13,"x_max":989,"o":"m 485 404 l 304 171 q 250 78 250 101 q 339 25 250 28 l 339 0 l 13 0 l 13 25 q 250 192 128 36 l 456 453 l 285 703 q 182 833 218 801 q 31 894 117 893 l 31 919 l 456 919 l 456 894 q 361 840 361 894 q 403 756 361 818 l 535 558 l 688 751 q 740 842 740 818 q 642 894 740 894 l 642 919 l 968 919 l 968 894 q 838 839 900 894 q 742 729 807 813 l 569 510 l 813 147 q 911 46 863 72 q 989 25 938 31 l 989 0 l 594 0 l 594 25 q 685 78 685 25 q 632 182 685 103 l 485 404 z "},"Y":{"ha":1003,"x_min":18,"x_max":988,"o":"m 539 450 l 710 719 q 760 828 760 799 q 667 894 760 894 l 667 919 l 988 919 l 988 894 q 800 758 886 894 l 567 390 l 567 176 q 583 57 567 81 q 697 25 606 25 l 697 0 l 306 0 l 306 25 q 419 57 397 25 q 436 176 436 81 l 436 378 l 151 811 q 18 894 97 894 l 18 919 l 411 919 l 411 894 q 304 833 304 894 q 335 765 304 813 l 539 450 z "},"Z":{"ha":849,"x_min":15,"x_max":807,"o":"m 192 56 l 572 56 q 708 100 664 56 q 782 243 742 135 l 807 243 l 764 0 l 15 0 l 15 25 l 604 864 l 328 864 q 178 832 217 864 q 124 689 139 800 l 97 689 l 117 919 l 797 919 l 192 56 z "},"[":{"ha":463,"x_min":114,"x_max":413,"o":"m 413 -275 l 114 -275 l 114 940 l 413 940 l 413 881 l 222 881 l 222 -215 l 413 -215 l 413 -275 z "},"\\":{"ha":386,"x_min":0,"x_max":386,"o":"m 54 964 l 386 -19 l 332 -19 l 0 964 l 54 964 z "},"]":{"ha":463,"x_min":50,"x_max":349,"o":"m 50 940 l 349 940 l 349 -275 l 50 -275 l 50 -215 l 240 -215 l 240 881 l 50 881 l 50 940 z "},"^":{"ha":651,"x_min":25,"x_max":626,"o":"m 339 939 l 626 450 l 563 450 l 326 851 l 89 450 l 25 450 l 314 939 l 339 939 z "},"_":{"ha":694,"x_min":-11,"x_max":706,"o":"m 706 -174 l -11 -174 l -11 -104 l 706 -104 l 706 -174 z "},"`":{"ha":463,"x_min":81,"x_max":303,"o":"m 81 993 l 232 993 l 303 758 l 279 758 l 81 993 z "},"a":{"ha":617,"x_min":47,"x_max":611,"o":"m 504 472 l 504 174 q 508 97 504 115 q 539 67 515 67 q 611 121 557 67 l 611 82 q 467 -19 533 -19 q 392 82 392 -19 q 303 14 347 49 q 196 -19 250 -19 q 87 26 126 -19 q 47 143 47 72 q 111 269 47 214 q 251 349 158 310 q 392 404 322 376 q 375 540 392 501 q 278 599 350 599 q 214 579 240 599 q 185 517 185 556 q 128 418 185 418 q 71 485 71 418 q 115 576 71 532 q 300 640 178 640 q 504 472 504 640 m 392 126 l 392 364 q 240 293 279 318 q 160 172 160 242 q 188 93 160 128 q 258 58 215 58 q 392 126 310 58 z "},"b":{"ha":694,"x_min":-4,"x_max":647,"o":"m 214 964 l 214 514 l 217 514 q 411 640 299 640 q 569 567 501 640 q 647 338 647 482 q 531 61 647 163 q 329 -19 438 -19 q 101 60 213 -19 l 101 781 q 53 875 101 875 q 6 864 33 875 l -4 888 l 183 964 l 214 964 m 214 471 l 214 99 q 360 31 279 31 q 476 99 428 31 q 529 299 529 174 q 483 469 529 400 q 353 543 433 543 q 214 471 281 543 z "},"c":{"ha":617,"x_min":47,"x_max":571,"o":"m 551 246 l 571 236 q 486 60 551 132 q 313 -19 413 -19 q 122 74 196 -19 q 47 313 47 168 q 138 551 47 458 q 344 640 224 640 q 479 601 415 640 q 553 490 553 557 q 492 433 553 433 q 414 513 421 433 q 322 593 407 593 q 194 519 240 593 q 156 369 156 458 q 204 183 156 265 q 358 86 261 86 q 551 246 492 86 z "},"d":{"ha":694,"x_min":47,"x_max":701,"o":"m 483 588 l 483 781 q 435 875 483 875 q 388 864 415 875 l 378 888 l 565 964 l 596 964 l 596 164 q 644 69 596 69 q 692 81 664 69 l 701 57 l 514 -19 l 483 -19 l 483 69 q 299 -19 397 -19 q 113 79 183 -19 q 47 288 47 168 q 129 526 47 419 q 346 640 217 640 q 483 588 432 640 m 483 118 l 483 421 q 447 542 483 489 q 339 599 406 599 q 238 549 283 599 q 174 336 174 478 q 228 133 174 211 q 364 56 283 56 q 483 118 426 56 z "},"e":{"ha":617,"x_min":47,"x_max":572,"o":"m 572 386 l 142 386 q 197 188 142 271 q 365 92 260 92 q 551 240 499 92 l 572 226 q 489 56 553 124 q 318 -19 418 -19 q 125 70 203 -19 q 47 300 47 160 q 117 538 47 444 q 335 640 194 640 q 507 569 442 640 q 572 386 572 499 m 143 428 l 431 428 q 397 542 431 497 q 289 590 358 590 q 189 541 231 590 q 143 428 147 492 z "},"f":{"ha":463,"x_min":53,"x_max":603,"o":"m 286 571 l 286 182 q 300 61 286 86 q 401 25 321 25 l 401 0 l 56 0 l 56 25 q 158 61 138 25 q 174 182 174 86 l 174 571 l 53 571 l 53 621 l 174 621 l 174 678 q 242 883 174 801 q 435 964 311 964 q 542 933 489 964 q 603 849 603 899 q 585 810 603 828 q 547 793 567 793 q 471 853 513 793 q 379 914 429 914 q 297 851 318 914 q 286 733 286 815 l 286 621 l 446 621 l 446 571 l 286 571 z "},"g":{"ha":694,"x_min":39,"x_max":669,"o":"m 490 596 l 640 596 q 669 567 669 596 q 640 536 669 536 l 544 536 q 578 411 578 490 q 517 267 578 325 q 329 200 449 200 q 240 214 289 200 q 189 135 189 172 q 297 92 189 100 q 435 90 308 92 q 658 -67 658 89 q 571 -215 658 -143 q 313 -300 467 -300 q 140 -269 221 -300 q 39 -168 39 -232 q 131 -26 39 -122 l 165 10 q 97 79 97 39 q 136 161 97 118 q 207 226 151 178 q 89 414 89 279 q 146 563 89 497 q 340 640 217 640 q 490 596 431 640 m 322 607 q 250 578 281 607 q 207 444 207 535 q 235 307 207 364 q 343 233 271 233 q 460 397 460 233 q 431 533 460 476 q 322 607 393 607 m 199 0 q 139 -119 139 -76 q 203 -190 139 -162 q 367 -218 268 -218 q 553 -174 486 -218 q 608 -83 608 -136 q 435 -15 608 -15 q 199 0 261 -15 z "},"h":{"ha":694,"x_min":7,"x_max":689,"o":"m 593 431 l 593 118 q 617 42 593 61 q 689 25 636 26 l 689 0 l 385 0 l 385 25 q 459 44 438 26 q 481 118 481 61 l 481 406 q 382 557 481 557 q 225 468 311 557 l 225 118 q 249 42 225 61 q 321 25 268 26 l 321 0 l 17 0 l 17 25 q 91 44 69 26 q 113 118 113 61 l 113 781 q 64 875 113 875 q 17 864 44 875 l 7 888 l 194 964 l 225 964 l 225 510 q 331 607 289 579 q 436 640 381 640 q 557 575 515 640 q 593 431 593 518 z "},"i":{"ha":386,"x_min":38,"x_max":351,"o":"m 256 640 l 256 118 q 279 42 256 61 q 351 25 299 26 l 351 0 l 47 0 l 47 25 q 122 44 100 26 q 143 118 143 61 l 143 457 q 94 551 143 551 q 47 540 75 551 l 38 564 l 225 640 l 256 640 m 131 896 q 151 944 131 924 q 199 964 171 964 q 247 944 226 964 q 267 896 267 924 q 247 848 267 868 q 199 828 226 828 q 151 848 171 828 q 131 896 131 868 z "},"j":{"ha":386,"x_min":-110,"x_max":267,"o":"m 256 640 l 256 10 q 182 -231 256 -151 q 8 -300 118 -300 q -65 -285 -31 -300 q -110 -232 -110 -267 q -94 -191 -110 -208 q -54 -174 -78 -174 q 19 -210 -22 -174 q 82 -246 60 -246 q 143 -129 143 -246 l 143 457 q 94 551 143 551 q 47 540 75 551 l 38 564 l 225 640 l 256 640 m 131 896 q 151 944 131 924 q 199 964 171 964 q 247 944 226 964 q 267 896 267 924 q 247 848 267 868 q 199 828 226 828 q 151 848 171 828 q 131 896 131 868 z "},"k":{"ha":694,"x_min":7,"x_max":703,"o":"m 425 93 l 226 346 l 404 507 q 449 565 449 547 q 399 596 449 596 l 399 621 l 671 621 l 671 596 q 567 578 606 596 q 483 515 535 563 l 338 381 l 526 143 q 628 40 592 61 q 703 25 653 25 l 703 0 l 401 0 l 401 25 q 444 51 444 25 q 425 93 444 68 m 225 964 l 225 118 q 249 42 225 61 q 321 25 268 26 l 321 0 l 17 0 l 17 25 q 91 44 69 26 q 113 118 113 61 l 113 781 q 64 875 113 875 q 17 864 44 875 l 7 888 l 194 964 l 225 964 z "},"l":{"ha":386,"x_min":38,"x_max":351,"o":"m 256 964 l 256 118 q 279 42 256 61 q 351 25 299 26 l 351 0 l 47 0 l 47 25 q 122 44 100 26 q 143 118 143 61 l 143 781 q 94 875 143 875 q 47 864 75 875 l 38 888 l 225 964 l 256 964 z "},"m":{"ha":1081,"x_min":7,"x_max":1074,"o":"m 225 640 l 225 508 q 321 597 293 578 q 442 640 379 640 q 545 602 500 640 q 597 506 590 564 q 692 600 654 574 q 814 640 747 640 q 940 575 897 640 q 978 431 978 518 l 978 118 q 1001 42 978 61 q 1074 25 1021 26 l 1074 0 l 769 0 l 769 25 q 844 44 822 26 q 865 118 865 61 l 865 393 q 851 504 865 471 q 763 557 829 557 q 601 474 690 557 l 601 118 q 625 42 601 61 q 697 25 644 26 l 697 0 l 393 0 l 393 25 q 467 44 446 26 q 489 118 489 61 l 489 393 q 475 504 489 471 q 386 557 453 557 q 225 474 314 557 l 225 118 q 249 42 225 61 q 321 25 268 26 l 321 0 l 17 0 l 17 25 q 91 44 69 26 q 113 118 113 61 l 113 457 q 64 551 113 551 q 17 540 44 551 l 7 564 l 194 640 l 225 640 z "},"n":{"ha":694,"x_min":7,"x_max":689,"o":"m 225 640 l 225 510 q 331 607 289 579 q 436 640 381 640 q 557 575 515 640 q 593 431 593 518 l 593 118 q 617 42 593 61 q 689 25 636 26 l 689 0 l 385 0 l 385 25 q 459 44 438 26 q 481 118 481 61 l 481 406 q 382 557 481 557 q 225 468 311 557 l 225 118 q 249 42 225 61 q 321 25 268 26 l 321 0 l 17 0 l 17 25 q 91 44 69 26 q 113 118 113 61 l 113 457 q 64 551 113 551 q 17 540 44 551 l 7 564 l 194 640 l 225 640 z "},"o":{"ha":694,"x_min":47,"x_max":647,"o":"m 349 640 q 562 547 476 640 q 647 325 647 454 q 575 99 647 197 q 339 -19 489 -19 q 126 81 211 -19 q 47 304 47 174 q 129 536 47 438 q 349 640 217 640 m 325 593 q 224 546 264 593 q 174 364 174 485 q 214 151 174 244 q 371 28 268 28 q 521 267 521 28 q 481 475 521 385 q 325 593 428 593 z "},"p":{"ha":694,"x_min":-6,"x_max":644,"o":"m 101 -178 l 101 457 q 53 551 101 551 q 6 540 33 551 l -4 564 l 183 640 l 214 640 l 214 497 l 217 497 q 411 640 300 640 q 589 540 524 640 q 644 335 644 453 q 574 93 644 193 q 358 -19 494 -19 q 214 36 268 -19 l 214 -178 q 235 -253 214 -236 q 321 -271 256 -269 l 321 -296 l -6 -296 l -6 -271 q 81 -253 60 -269 q 101 -178 101 -236 m 214 451 l 214 193 q 255 62 214 101 q 361 22 296 22 q 492 108 449 22 q 526 274 526 176 q 490 446 526 369 q 357 543 443 543 q 214 451 294 543 z "},"q":{"ha":694,"x_min":47,"x_max":703,"o":"m 596 640 l 596 -178 q 617 -253 596 -236 q 703 -271 638 -269 l 703 -296 l 376 -296 l 376 -271 q 463 -253 442 -269 q 483 -178 483 -236 l 483 107 q 282 -19 376 -19 q 107 79 174 -19 q 47 279 47 165 q 132 531 47 429 q 369 640 224 640 q 497 594 443 640 l 572 640 l 596 640 m 483 150 l 483 425 q 479 497 483 478 q 442 558 471 533 q 344 590 404 590 q 240 550 285 590 q 165 328 165 485 q 231 126 165 192 q 347 78 279 78 q 483 150 429 78 z "},"r":{"ha":463,"x_min":7,"x_max":472,"o":"m 225 640 l 225 507 l 228 507 q 385 640 310 640 q 445 619 418 640 q 472 564 472 597 q 455 520 472 539 q 413 501 438 501 q 358 524 389 501 q 314 547 328 547 q 225 443 275 547 l 225 182 q 239 61 225 86 q 340 25 260 25 l 340 0 l 17 0 l 17 25 q 91 44 69 26 q 113 118 113 61 l 113 457 q 64 551 113 551 q 17 540 44 551 l 7 564 l 194 640 l 225 640 z "},"s":{"ha":540,"x_min":71,"x_max":494,"o":"m 449 640 l 449 428 l 424 428 q 257 599 385 599 q 186 578 215 599 q 151 514 151 554 q 240 404 151 453 q 406 318 322 361 q 494 167 494 258 q 430 33 494 85 q 282 -19 365 -19 q 157 1 229 -19 q 122 8 132 8 q 97 -10 101 8 l 72 -10 l 72 213 l 97 213 q 160 79 107 136 q 288 22 213 22 q 363 47 332 22 q 394 117 394 72 q 311 232 394 183 q 154 315 233 274 q 71 454 71 371 q 125 590 71 539 q 264 640 179 640 q 343 625 289 640 q 394 614 382 614 q 424 640 414 614 l 449 640 z "},"t":{"ha":386,"x_min":11,"x_max":386,"o":"m 221 621 l 367 621 l 367 571 l 221 571 l 221 189 q 229 108 221 131 q 286 69 243 69 q 330 86 308 69 q 358 125 351 103 l 386 125 q 326 33 365 69 q 226 -8 281 -8 q 151 21 182 -8 q 108 140 108 61 l 108 571 l 11 571 l 11 599 q 200 825 129 647 l 221 825 l 221 621 z "},"u":{"ha":694,"x_min":4,"x_max":694,"o":"m 589 621 l 589 164 q 638 69 589 69 q 685 81 657 69 l 694 57 l 507 -19 l 476 -19 l 476 113 q 382 22 415 46 q 265 -19 326 -19 q 149 38 190 -19 q 107 185 107 94 l 107 488 q 88 575 107 556 q 4 596 69 594 l 4 621 l 219 621 l 219 189 q 324 64 219 64 q 476 153 390 64 l 476 488 q 458 575 476 556 q 374 596 439 594 l 374 621 l 589 621 z "},"v":{"ha":694,"x_min":13,"x_max":682,"o":"m 389 149 l 528 489 q 550 560 550 543 q 479 596 550 596 l 479 621 l 682 621 l 682 596 q 619 567 644 596 q 583 499 603 547 l 369 -19 l 342 -19 l 128 490 q 88 563 106 544 q 13 596 63 589 l 13 621 l 304 621 l 304 596 q 231 546 231 596 q 251 476 231 526 l 389 149 z "},"w":{"ha":1003,"x_min":11,"x_max":992,"o":"m 717 160 l 842 488 q 861 558 861 539 q 796 596 861 596 l 796 621 l 992 621 l 992 596 q 899 501 933 592 l 699 -19 l 669 -19 l 515 378 l 333 -19 l 308 -19 l 115 486 q 81 560 93 543 q 11 596 58 588 l 11 621 l 271 621 l 271 596 q 213 553 213 596 q 231 489 213 538 l 358 146 l 490 436 l 463 511 q 428 574 446 558 q 357 596 406 596 l 357 621 l 653 621 l 653 596 q 571 544 571 596 q 582 500 571 528 l 717 160 z "},"x":{"ha":694,"x_min":18,"x_max":678,"o":"m 282 314 l 175 471 q 106 561 128 540 q 18 596 68 596 l 18 621 l 311 621 l 311 596 q 260 561 260 596 q 289 503 260 549 q 326 446 307 475 l 350 407 l 376 443 q 450 563 450 544 q 401 596 450 596 l 401 621 l 611 621 l 611 596 q 535 564 572 596 q 465 481 511 542 l 378 364 l 524 156 q 606 50 583 69 q 678 25 633 25 l 678 0 l 385 0 l 385 25 q 444 57 444 25 q 392 156 444 79 l 310 275 l 221 156 q 165 61 165 81 q 226 25 165 25 l 226 0 l 24 0 l 24 25 q 101 76 57 26 q 163 156 110 85 l 282 314 z "},"y":{"ha":694,"x_min":8,"x_max":686,"o":"m 342 25 l 125 478 q 8 596 72 589 l 8 621 l 297 621 l 297 596 q 222 546 222 596 q 251 461 222 521 l 396 164 l 528 490 q 546 561 546 535 q 483 596 546 596 l 483 621 l 686 621 l 686 596 q 603 524 632 596 l 338 -126 q 233 -262 301 -215 q 133 -300 181 -300 q 68 -279 96 -300 q 40 -222 40 -258 q 111 -161 40 -161 q 166 -174 138 -161 q 203 -186 194 -186 q 304 -68 257 -186 l 342 25 z "},"z":{"ha":617,"x_min":25,"x_max":592,"o":"m 582 190 l 574 0 l 25 0 l 25 25 l 438 574 l 251 574 q 136 558 160 574 q 94 449 103 536 l 69 449 l 69 621 l 592 621 l 592 596 l 176 47 l 386 47 q 514 67 486 47 q 557 190 547 92 l 582 190 z "},"{":{"ha":667,"x_min":144,"x_max":522,"o":"m 144 317 l 144 347 q 250 390 210 356 q 297 493 297 431 q 285 597 297 539 q 268 704 268 675 q 345 883 268 804 q 522 964 422 963 l 522 939 q 409 883 456 932 q 363 769 363 835 q 377 665 363 733 q 392 563 392 597 q 338 418 392 479 q 200 333 285 357 l 200 331 q 338 246 285 307 q 392 101 392 185 q 377 -1 392 67 q 363 -106 363 -69 q 409 -219 363 -171 q 522 -275 456 -268 l 522 -300 q 345 -219 422 -299 q 268 -40 268 -140 q 285 67 268 -11 q 297 171 297 125 q 250 274 297 233 q 144 317 210 308 z "},"|":{"ha":278,"x_min":111,"x_max":167,"o":"m 167 1042 l 167 -347 l 111 -347 l 111 1042 l 167 1042 z "},"}":{"ha":667,"x_min":144,"x_max":522,"o":"m 522 347 l 522 317 q 417 274 457 308 q 369 171 369 233 q 382 67 369 125 q 399 -40 399 -11 q 322 -219 399 -140 q 144 -300 244 -299 l 144 -275 q 258 -219 211 -268 q 304 -106 304 -171 q 290 -1 304 -69 q 275 101 275 67 q 331 247 275 185 q 467 331 382 307 l 467 333 q 331 417 382 357 q 275 563 275 479 q 290 665 275 597 q 304 769 304 733 q 258 883 304 835 q 144 939 211 932 l 144 964 q 322 883 244 963 q 399 704 399 804 q 382 597 399 675 q 369 493 369 539 q 417 390 369 431 q 522 347 457 356 z "},"~":{"ha":751,"x_min":32,"x_max":721,"o":"m 689 571 l 721 571 q 669 419 719 483 q 529 351 614 351 q 351 415 465 351 q 189 479 238 479 q 102 443 135 479 q 64 351 69 407 l 32 351 q 86 505 33 439 q 224 571 139 571 q 401 507 288 571 q 564 443 515 443 q 651 479 618 443 q 689 571 683 515 z "},"¡":{"ha":463,"x_min":154,"x_max":310,"o":"m 218 397 l 246 397 l 310 -203 q 292 -269 310 -242 q 232 -300 269 -300 q 174 -271 194 -300 q 154 -203 154 -242 q 218 397 154 -217 m 232 510 q 179 532 201 510 q 157 585 157 554 q 179 638 157 617 q 232 660 201 660 q 285 638 264 660 q 307 585 307 617 q 285 532 307 554 q 232 510 264 510 z "},"¢":{"ha":694,"x_min":88,"x_max":611,"o":"m 254 171 l 404 586 q 363 593 390 593 q 235 519 281 593 q 196 369 196 458 q 254 171 196 253 m 442 556 l 288 132 q 399 86 333 86 q 592 246 532 86 l 611 236 q 526 60 592 132 q 353 -19 453 -19 q 243 8 292 -19 l 146 -257 l 99 -257 l 204 33 q 88 313 88 124 q 178 551 88 458 q 385 640 264 640 q 422 636 401 640 l 517 899 l 567 899 l 467 625 q 593 490 593 585 q 532 433 593 433 q 468 465 489 433 q 450 524 456 485 q 442 556 446 556 z "},"£":{"ha":694,"x_min":39,"x_max":663,"o":"m 490 447 l 318 447 l 318 400 q 274 158 318 279 q 382 122 328 140 q 492 103 446 103 q 639 211 608 103 l 663 206 q 604 51 651 114 q 463 -19 550 -19 q 347 18 407 -19 q 247 92 297 56 q 122 -19 196 -19 q 62 6 85 -19 q 39 69 39 31 q 72 148 39 118 q 156 178 106 178 q 185 175 165 178 q 210 172 204 172 q 211 199 210 179 q 213 229 213 218 q 200 447 213 308 l 67 447 l 67 511 l 194 511 q 188 633 188 613 q 250 846 188 761 q 443 940 319 940 q 569 892 521 940 q 611 801 611 850 q 596 763 611 781 q 560 744 581 744 q 506 825 510 744 q 425 899 501 899 q 300 706 300 899 q 315 511 300 651 l 490 511 l 490 447 m 203 117 q 144 136 175 136 q 81 78 81 136 q 124 22 81 22 q 203 117 182 22 z "},"¤":{"ha":694,"x_min":18,"x_max":676,"o":"m 103 460 q 174 287 103 358 q 347 215 246 215 q 520 287 449 215 q 592 460 592 358 q 520 633 592 561 q 347 704 449 704 q 174 633 246 704 q 103 460 103 561 m 157 231 l 57 131 l 18 169 l 118 269 q 47 460 47 349 q 118 650 47 568 l 18 750 l 57 789 l 157 689 q 347 760 236 760 q 538 689 456 760 l 638 789 l 676 750 l 576 650 q 647 460 647 568 q 576 269 647 351 l 676 169 l 638 131 l 538 231 q 347 160 456 160 q 157 231 236 160 z "},"¥":{"ha":694,"x_min":1,"x_max":693,"o":"m 403 396 l 403 146 q 418 56 403 76 q 522 26 440 26 l 522 0 l 171 0 l 171 26 q 275 56 253 26 q 290 146 290 76 l 290 382 l 251 469 l 1 469 l 1 519 l 231 519 l 171 657 l 1 657 l 1 707 l 150 707 l 119 781 q 75 864 93 843 q 1 894 49 894 l 1 919 l 301 919 l 301 894 q 218 850 218 894 q 238 796 218 843 l 274 707 l 482 707 l 514 786 q 535 853 535 838 q 458 894 535 894 l 458 919 l 693 919 l 693 894 q 614 857 642 894 q 558 749 601 840 l 539 707 l 693 707 l 693 657 l 521 657 l 458 519 l 693 519 l 693 469 l 435 469 l 403 396 m 458 657 l 294 657 l 376 460 l 458 657 z "},"¦":{"ha":278,"x_min":111,"x_max":167,"o":"m 167 243 l 167 -243 l 111 -243 l 111 243 l 167 243 m 167 938 l 167 451 l 111 451 l 111 938 l 167 938 z "},"§":{"ha":694,"x_min":106,"x_max":589,"o":"m 256 575 q 171 746 171 663 q 227 885 171 829 q 365 940 283 940 q 485 898 433 940 q 536 789 536 856 q 521 749 536 767 q 483 731 506 731 q 445 746 461 731 q 429 783 429 761 q 434 815 429 793 q 439 849 439 836 q 417 895 439 878 q 365 913 396 913 q 278 878 317 913 q 240 797 240 844 q 331 647 240 725 q 499 513 414 581 q 589 326 589 425 q 546 195 589 258 q 439 97 503 132 q 522 -71 522 8 q 467 -212 522 -156 q 329 -269 413 -269 q 211 -225 263 -269 q 160 -115 160 -181 q 175 -75 160 -93 q 213 -57 190 -57 q 263 -117 263 -57 q 257 -154 263 -131 q 251 -189 251 -178 q 282 -229 251 -214 q 335 -242 307 -242 q 415 -207 378 -242 q 453 -131 453 -172 q 363 21 453 -60 q 196 161 279 90 q 106 343 106 250 q 256 575 106 489 m 278 554 q 175 401 175 496 q 267 242 175 324 q 417 117 342 179 q 519 263 519 174 q 429 426 519 344 q 278 554 354 490 z "},"¨":{"ha":463,"x_min":38,"x_max":425,"o":"m 113 760 q 60 782 82 760 q 38 835 38 804 q 60 888 38 867 q 113 910 82 910 q 166 888 144 910 q 188 835 188 867 q 166 782 188 804 q 113 760 144 760 m 350 760 q 297 782 319 760 q 275 835 275 804 q 297 888 275 867 q 350 910 319 910 q 403 888 382 910 q 425 835 425 867 q 403 782 425 804 q 350 760 382 760 z "},"©":{"ha":1056,"x_min":47,"x_max":1008,"o":"m 765 769 l 779 579 l 753 579 q 679 696 733 653 q 550 739 625 739 q 382 660 440 739 q 329 475 329 589 q 379 281 329 353 q 556 196 438 196 q 765 306 694 196 l 792 292 q 528 154 700 154 q 309 240 401 154 q 217 451 217 325 q 315 681 217 592 q 557 769 414 769 q 681 744 604 769 q 706 739 697 739 q 739 769 726 739 l 765 769 m 1008 460 q 867 120 1008 261 q 528 -21 726 -21 q 188 120 329 -21 q 47 460 47 261 q 188 799 47 658 q 528 940 329 940 q 867 799 726 940 q 1008 460 1008 658 m 967 460 q 838 770 967 642 q 528 899 710 899 q 217 770 346 899 q 89 460 89 642 q 217 149 89 278 q 528 21 346 21 q 838 149 710 21 q 967 460 967 278 z "},"ª":{"ha":383,"x_min":1,"x_max":386,"o":"m 329 811 l 329 624 q 349 593 329 593 q 386 614 357 593 l 386 582 q 285 533 318 533 q 235 596 243 533 q 90 533 153 533 q 28 558 56 533 q 1 619 1 583 q 235 800 1 718 q 226 878 236 854 q 163 913 210 913 q 103 857 103 913 q 61 801 103 801 q 19 842 19 801 q 181 939 19 939 q 329 811 329 939 m 235 628 l 235 768 q 96 650 96 726 q 113 608 96 625 q 156 592 131 592 q 196 604 175 592 q 235 628 217 617 z "},"«":{"ha":694,"x_min":43,"x_max":651,"o":"m 347 -6 l 306 -6 l 43 314 l 306 633 l 347 633 l 179 314 l 347 -6 m 651 -6 l 610 -6 l 347 314 l 610 633 l 651 633 l 483 314 l 651 -6 z "},"¬":{"ha":783,"x_min":28,"x_max":757,"o":"m 28 599 l 757 599 l 757 324 l 701 324 l 701 543 l 28 543 l 28 599 z "},"®":{"ha":1056,"x_min":47,"x_max":1008,"o":"m 343 306 l 343 629 q 335 708 343 690 q 279 735 324 735 l 279 760 l 525 760 q 679 725 622 760 q 746 610 746 686 q 593 457 746 494 l 725 269 q 771 213 757 224 q 822 197 789 197 l 822 172 l 692 172 l 492 446 l 440 446 l 440 247 q 467 204 440 214 q 521 197 482 197 l 521 172 l 272 172 l 272 197 q 335 222 322 197 q 343 306 343 239 m 440 476 l 453 476 q 633 599 633 476 q 595 692 633 656 q 499 729 557 729 q 440 719 468 729 l 440 476 m 1008 460 q 867 120 1008 261 q 528 -21 726 -21 q 188 120 329 -21 q 47 460 47 261 q 188 799 47 658 q 528 940 329 940 q 867 799 726 940 q 1008 460 1008 658 m 967 460 q 838 770 967 642 q 528 899 710 899 q 217 770 346 899 q 89 460 89 642 q 217 149 89 278 q 528 21 346 21 q 838 149 710 21 q 967 460 967 278 z "},"°":{"ha":556,"x_min":67,"x_max":488,"o":"m 488 733 q 427 585 488 647 q 281 524 367 524 q 128 585 190 524 q 67 735 67 646 q 129 879 67 819 q 276 939 192 939 q 424 879 361 939 q 488 733 488 819 m 428 733 q 383 840 428 796 q 275 883 338 883 q 170 840 214 883 q 126 735 126 796 q 171 624 126 669 q 279 579 215 579 q 385 625 342 579 q 428 733 428 671 z "},"±":{"ha":783,"x_min":28,"x_max":757,"o":"m 28 96 l 28 151 l 364 151 l 364 433 l 28 433 l 28 489 l 364 489 l 364 826 l 419 826 l 419 489 l 757 489 l 757 433 l 419 433 l 419 151 l 757 151 l 757 96 l 28 96 z "},"²":{"ha":417,"x_min":13,"x_max":388,"o":"m 388 553 l 347 450 l 13 450 l 13 475 q 172 611 128 565 q 268 779 268 707 q 240 847 268 819 q 169 875 211 875 q 57 797 82 875 l 26 797 q 192 939 47 939 q 300 906 251 939 q 353 811 353 868 q 265 647 353 740 q 119 514 232 611 l 263 514 q 358 553 336 514 l 388 553 z "},"³":{"ha":417,"x_min":28,"x_max":353,"o":"m 61 822 l 36 833 q 192 939 81 939 q 282 914 243 939 q 328 838 328 886 q 256 733 328 785 q 353 610 353 700 q 281 479 353 526 q 129 440 218 440 q 28 483 28 440 q 68 513 28 513 q 122 497 83 513 q 186 481 161 481 q 250 506 222 481 q 278 568 278 532 q 119 682 278 682 l 119 701 q 206 732 168 704 q 243 807 243 760 q 160 882 243 882 q 61 822 101 882 z "},"´":{"ha":463,"x_min":160,"x_max":382,"o":"m 231 993 l 382 993 l 183 758 l 160 758 l 231 993 z "},"¶":{"ha":629,"x_min":-6,"x_max":635,"o":"m 546 882 l 546 -300 l 496 -300 l 496 882 l 369 882 l 369 -300 l 319 -300 l 319 407 q 89 464 172 407 q -6 663 -6 529 q 73 852 -6 785 q 297 919 151 919 l 635 919 l 635 882 l 546 882 z "},"¸":{"ha":463,"x_min":106,"x_max":358,"o":"m 153 -65 l 243 -17 q 358 -112 358 -17 q 301 -208 358 -171 q 190 -242 251 -242 q 106 -231 150 -242 l 111 -204 q 164 -217 149 -217 q 223 -195 196 -217 q 250 -143 250 -174 q 153 -65 250 -71 z "},"¹":{"ha":417,"x_min":90,"x_max":325,"o":"m 90 879 l 229 939 l 256 939 l 256 528 q 265 482 256 489 q 325 475 275 475 l 325 450 l 101 450 l 101 475 q 161 482 151 475 q 171 528 171 489 l 171 774 q 171 831 171 832 q 147 874 167 874 q 101 860 136 874 l 90 879 z "},"º":{"ha":431,"x_min":18,"x_max":413,"o":"m 413 739 q 353 596 413 658 q 214 533 293 533 q 74 588 129 533 q 18 728 18 643 q 74 879 18 819 q 222 939 131 939 q 359 881 306 939 q 413 739 413 822 m 318 696 q 292 828 318 767 q 196 906 257 906 q 113 776 113 906 q 138 649 113 710 q 225 567 169 567 q 318 696 318 567 z "},"»":{"ha":694,"x_min":43,"x_max":651,"o":"m 347 633 l 389 633 l 651 314 l 389 -6 l 347 -6 l 515 314 l 347 633 m 43 633 l 85 633 l 347 314 l 85 -6 l 43 -6 l 211 314 l 43 633 z "},"¼":{"ha":1042,"x_min":90,"x_max":1024,"o":"m 1024 178 l 1024 122 l 950 122 l 950 0 l 865 0 l 865 122 l 633 122 l 633 172 l 888 488 l 950 488 l 950 178 l 1024 178 m 865 178 l 865 392 l 863 389 l 689 178 l 865 178 m 90 879 l 229 939 l 256 939 l 256 528 q 265 482 256 489 q 325 475 275 475 l 325 450 l 101 450 l 101 475 q 161 482 151 475 q 171 528 171 489 l 171 774 q 171 831 171 832 q 147 874 167 874 q 101 860 136 874 l 90 879 m 876 939 l 242 -36 l 182 -36 l 815 939 l 876 939 z "},"½":{"ha":1042,"x_min":90,"x_max":1014,"o":"m 90 879 l 229 939 l 256 939 l 256 528 q 265 482 256 489 q 325 475 275 475 l 325 450 l 101 450 l 101 475 q 161 482 151 475 q 171 528 171 489 l 171 774 q 171 831 171 832 q 147 874 167 874 q 101 860 136 874 l 90 879 m 860 939 l 226 -36 l 165 -36 l 800 939 l 860 939 m 1014 103 l 974 0 l 639 0 l 639 25 q 799 161 754 115 q 894 329 894 257 q 866 397 894 369 q 796 425 838 425 q 683 347 708 425 l 653 347 q 818 489 674 489 q 926 456 878 489 q 979 361 979 418 q 892 197 979 290 q 746 64 858 161 l 889 64 q 985 103 963 64 l 1014 103 z "},"¾":{"ha":1042,"x_min":28,"x_max":1024,"o":"m 61 822 l 36 833 q 192 939 81 939 q 282 914 243 939 q 328 838 328 886 q 256 733 328 785 q 353 610 353 700 q 281 479 353 526 q 129 440 218 440 q 28 483 28 440 q 68 513 28 513 q 122 497 83 513 q 186 481 161 481 q 250 506 222 481 q 278 568 278 532 q 119 682 278 682 l 119 701 q 206 732 168 704 q 243 807 243 760 q 160 882 243 882 q 61 822 101 882 m 868 939 l 235 -36 l 174 -36 l 807 939 l 868 939 m 1024 178 l 1024 122 l 950 122 l 950 0 l 865 0 l 865 122 l 633 122 l 633 172 l 888 488 l 950 488 l 950 178 l 1024 178 m 865 178 l 865 392 l 863 389 l 689 178 l 865 178 z "},"¿":{"ha":617,"x_min":58,"x_max":557,"o":"m 313 424 l 340 424 q 300 235 340 331 q 225 83 263 160 q 185 -72 185 -3 q 224 -203 185 -149 q 340 -262 267 -262 q 424 -242 386 -262 q 469 -175 469 -218 q 449 -113 469 -150 q 428 -58 428 -76 q 443 -17 428 -35 q 482 0 458 0 q 539 -36 517 0 q 557 -104 557 -67 q 501 -233 557 -179 q 308 -300 433 -300 q 103 -214 168 -300 q 58 -85 58 -156 q 124 88 58 0 q 247 236 185 161 q 313 424 313 328 m 324 510 q 271 532 293 510 q 249 585 249 554 q 271 638 249 617 q 324 660 293 660 q 377 638 356 660 q 399 585 399 617 q 377 532 399 554 q 324 510 356 510 z "},"À":{"ha":1003,"x_min":14,"x_max":989,"o":"m 638 308 l 282 308 l 226 179 q 196 86 196 108 q 231 38 196 51 q 303 25 251 29 l 303 0 l 14 0 l 14 25 q 96 60 67 31 q 157 165 125 90 l 488 940 l 513 940 l 825 190 q 882 78 861 104 q 989 25 921 28 l 989 0 l 626 0 l 626 25 q 721 88 721 29 q 688 193 721 117 l 638 308 m 619 358 l 463 729 l 303 358 l 619 358 m 351 1219 l 503 1219 l 574 985 l 550 985 l 351 1219 z "},"Á":{"ha":1003,"x_min":14,"x_max":989,"o":"m 638 308 l 282 308 l 226 179 q 196 86 196 108 q 231 38 196 51 q 303 25 251 29 l 303 0 l 14 0 l 14 25 q 96 60 67 31 q 157 165 125 90 l 488 940 l 513 940 l 825 190 q 882 78 861 104 q 989 25 921 28 l 989 0 l 626 0 l 626 25 q 721 88 721 29 q 688 193 721 117 l 638 308 m 619 358 l 463 729 l 303 358 l 619 358 m 501 1219 l 653 1219 l 454 985 l 431 985 l 501 1219 z "},"Â":{"ha":1003,"x_min":14,"x_max":989,"o":"m 638 308 l 282 308 l 226 179 q 196 86 196 108 q 231 38 196 51 q 303 25 251 29 l 303 0 l 14 0 l 14 25 q 96 60 67 31 q 157 165 125 90 l 488 940 l 513 940 l 825 190 q 882 78 861 104 q 989 25 921 28 l 989 0 l 626 0 l 626 25 q 721 88 721 29 q 688 193 721 117 l 638 308 m 619 358 l 463 729 l 303 358 l 619 358 m 439 1201 l 564 1201 l 693 978 l 671 978 l 501 1121 l 332 978 l 310 978 l 439 1201 z "},"Ã":{"ha":1003,"x_min":14,"x_max":989,"o":"m 638 308 l 282 308 l 226 179 q 196 86 196 108 q 231 38 196 51 q 303 25 251 29 l 303 0 l 14 0 l 14 25 q 96 60 67 31 q 157 165 125 90 l 488 940 l 513 940 l 825 190 q 882 78 861 104 q 989 25 921 28 l 989 0 l 626 0 l 626 25 q 721 88 721 29 q 688 193 721 117 l 638 308 m 619 358 l 463 729 l 303 358 l 619 358 m 307 992 l 286 992 q 314 1113 285 1064 q 415 1169 349 1169 q 535 1122 463 1169 q 633 1075 607 1075 q 699 1169 685 1075 l 719 1169 q 692 1049 721 1097 q 590 992 657 992 q 471 1039 543 992 q 372 1086 399 1086 q 307 992 321 1086 z "},"Ä":{"ha":1003,"x_min":14,"x_max":989,"o":"m 638 308 l 282 308 l 226 179 q 196 86 196 108 q 231 38 196 51 q 303 25 251 29 l 303 0 l 14 0 l 14 25 q 96 60 67 31 q 157 165 125 90 l 488 940 l 513 940 l 825 190 q 882 78 861 104 q 989 25 921 28 l 989 0 l 626 0 l 626 25 q 721 88 721 29 q 688 193 721 117 l 638 308 m 619 358 l 463 729 l 303 358 l 619 358 m 383 1007 q 331 1029 353 1007 q 308 1082 308 1051 q 331 1135 308 1114 q 383 1157 353 1157 q 437 1135 415 1157 q 458 1082 458 1114 q 437 1029 458 1051 q 383 1007 415 1007 m 621 1007 q 568 1029 590 1007 q 546 1082 546 1051 q 568 1135 546 1114 q 621 1157 590 1157 q 674 1135 653 1157 q 696 1082 696 1114 q 674 1029 696 1051 q 621 1007 653 1007 z "},"Å":{"ha":1003,"x_min":14,"x_max":989,"o":"m 619 358 l 463 729 l 303 358 l 619 358 m 989 0 l 626 0 l 626 25 q 721 88 721 29 q 688 193 721 117 l 638 308 l 282 308 l 226 179 q 196 86 196 108 q 231 38 196 51 q 303 25 251 29 l 303 0 l 14 0 l 14 25 q 96 60 67 31 q 157 165 125 90 l 468 896 q 393 942 422 907 q 364 1024 364 976 q 402 1116 364 1078 q 494 1154 440 1154 q 587 1116 549 1154 q 625 1024 625 1078 q 599 944 625 979 q 531 899 572 910 l 825 190 q 882 78 861 104 q 989 25 921 28 l 989 0 m 411 1024 q 435 965 411 989 q 494 940 460 940 q 553 965 529 940 q 578 1024 578 989 q 553 1083 578 1058 q 494 1107 529 1107 q 435 1083 460 1107 q 411 1024 411 1058 z "},"Æ":{"ha":1235,"x_min":-14,"x_max":1203,"o":"m 568 356 l 301 356 l 225 213 q 169 83 169 108 q 275 25 169 33 l 275 0 l -14 0 l -14 25 q 132 154 64 25 l 419 694 q 479 839 479 807 q 363 894 479 894 l 363 919 l 1118 919 l 1131 718 l 1103 718 q 1044 846 1083 819 q 908 869 1011 869 l 699 869 l 699 506 l 858 506 q 976 526 947 506 q 1019 640 1014 553 l 1044 640 l 1044 319 l 1019 319 q 975 435 1011 408 q 858 456 946 456 l 699 456 l 699 119 q 715 63 699 76 q 774 50 731 50 l 938 50 q 1076 94 1024 50 q 1176 231 1117 128 l 1203 231 l 1125 0 l 438 0 l 438 25 q 551 57 529 25 q 568 176 568 81 l 568 356 m 565 865 l 328 406 l 568 406 l 568 865 l 565 865 z "},"Ç":{"ha":926,"x_min":50,"x_max":878,"o":"m 494 -21 l 481 -43 q 565 -142 565 -64 q 521 -231 565 -197 q 419 -264 476 -264 q 356 -260 389 -264 l 356 -231 q 389 -233 378 -233 q 446 -212 421 -233 q 471 -158 471 -190 q 399 -110 471 -104 l 454 -19 q 159 126 268 1 q 50 446 50 251 q 181 797 50 653 q 518 940 313 940 q 715 892 617 940 q 756 876 746 876 q 813 940 797 876 l 836 940 l 857 628 l 836 628 q 529 892 758 892 q 272 747 356 892 q 204 444 204 631 q 285 160 204 267 q 549 39 376 39 q 728 92 653 39 q 857 229 788 132 l 878 215 q 494 -21 744 -21 z "},"È":{"ha":849,"x_min":26,"x_max":817,"o":"m 288 869 l 288 506 l 472 506 q 590 526 561 506 q 633 640 628 553 l 658 640 l 658 319 l 633 319 q 589 435 625 408 q 472 456 560 456 l 288 456 l 288 119 q 303 63 288 76 q 363 50 319 50 l 551 50 q 690 94 638 50 q 790 231 731 128 l 817 231 l 739 0 l 26 0 l 26 25 q 140 57 118 25 q 157 176 157 81 l 157 743 q 140 863 157 839 q 26 894 118 894 l 26 919 l 732 919 l 744 718 l 717 718 q 658 846 697 819 q 522 869 625 869 l 288 869 m 274 1219 l 425 1219 l 496 985 l 472 985 l 274 1219 z "},"É":{"ha":849,"x_min":26,"x_max":817,"o":"m 288 869 l 288 506 l 472 506 q 590 526 561 506 q 633 640 628 553 l 658 640 l 658 319 l 633 319 q 589 435 625 408 q 472 456 560 456 l 288 456 l 288 119 q 303 63 288 76 q 363 50 319 50 l 551 50 q 690 94 638 50 q 790 231 731 128 l 817 231 l 739 0 l 26 0 l 26 25 q 140 57 118 25 q 157 176 157 81 l 157 743 q 140 863 157 839 q 26 894 118 894 l 26 919 l 732 919 l 744 718 l 717 718 q 658 846 697 819 q 522 869 625 869 l 288 869 m 424 1219 l 575 1219 l 376 985 l 353 985 l 424 1219 z "},"Ê":{"ha":849,"x_min":26,"x_max":817,"o":"m 288 869 l 288 506 l 472 506 q 590 526 561 506 q 633 640 628 553 l 658 640 l 658 319 l 633 319 q 589 435 625 408 q 472 456 560 456 l 288 456 l 288 119 q 303 63 288 76 q 363 50 319 50 l 551 50 q 690 94 638 50 q 790 231 731 128 l 817 231 l 739 0 l 26 0 l 26 25 q 140 57 118 25 q 157 176 157 81 l 157 743 q 140 863 157 839 q 26 894 118 894 l 26 919 l 732 919 l 744 718 l 717 718 q 658 846 697 819 q 522 869 625 869 l 288 869 m 361 1201 l 486 1201 l 615 978 l 593 978 l 424 1121 l 254 978 l 232 978 l 361 1201 z "},"Ë":{"ha":849,"x_min":26,"x_max":817,"o":"m 288 869 l 288 506 l 472 506 q 590 526 561 506 q 633 640 628 553 l 658 640 l 658 319 l 633 319 q 589 435 625 408 q 472 456 560 456 l 288 456 l 288 119 q 303 63 288 76 q 363 50 319 50 l 551 50 q 690 94 638 50 q 790 231 731 128 l 817 231 l 739 0 l 26 0 l 26 25 q 140 57 118 25 q 157 176 157 81 l 157 743 q 140 863 157 839 q 26 894 118 894 l 26 919 l 732 919 l 744 718 l 717 718 q 658 846 697 819 q 522 869 625 869 l 288 869 m 306 1007 q 253 1029 275 1007 q 231 1082 231 1051 q 253 1135 231 1114 q 306 1157 275 1157 q 359 1135 338 1157 q 381 1082 381 1114 q 359 1029 381 1051 q 306 1007 338 1007 m 543 1007 q 490 1029 513 1007 q 468 1082 468 1051 q 490 1135 468 1114 q 543 1157 513 1157 q 597 1135 575 1157 q 618 1082 618 1114 q 597 1029 618 1051 q 543 1007 575 1007 z "},"Ì":{"ha":463,"x_min":35,"x_max":426,"o":"m 296 743 l 296 176 q 313 57 296 81 q 426 25 335 25 l 426 0 l 35 0 l 35 25 q 149 57 126 25 q 165 176 165 81 l 165 743 q 149 863 165 839 q 35 894 126 894 l 35 919 l 426 919 l 426 894 q 313 863 335 894 q 296 743 296 839 m 81 1219 l 232 1219 l 303 985 l 279 985 l 81 1219 z "},"Í":{"ha":463,"x_min":35,"x_max":426,"o":"m 296 743 l 296 176 q 313 57 296 81 q 426 25 335 25 l 426 0 l 35 0 l 35 25 q 149 57 126 25 q 165 176 165 81 l 165 743 q 149 863 165 839 q 35 894 126 894 l 35 919 l 426 919 l 426 894 q 313 863 335 894 q 296 743 296 839 m 231 1219 l 382 1219 l 183 985 l 160 985 l 231 1219 z "},"Î":{"ha":463,"x_min":35,"x_max":426,"o":"m 296 743 l 296 176 q 313 57 296 81 q 426 25 335 25 l 426 0 l 35 0 l 35 25 q 149 57 126 25 q 165 176 165 81 l 165 743 q 149 863 165 839 q 35 894 126 894 l 35 919 l 426 919 l 426 894 q 313 863 335 894 q 296 743 296 839 m 168 1201 l 293 1201 l 422 978 l 400 978 l 231 1121 l 61 978 l 39 978 l 168 1201 z "},"Ï":{"ha":463,"x_min":35,"x_max":426,"o":"m 296 743 l 296 176 q 313 57 296 81 q 426 25 335 25 l 426 0 l 35 0 l 35 25 q 149 57 126 25 q 165 176 165 81 l 165 743 q 149 863 165 839 q 35 894 126 894 l 35 919 l 426 919 l 426 894 q 313 863 335 894 q 296 743 296 839 m 113 1007 q 60 1029 82 1007 q 38 1082 38 1051 q 60 1135 38 1114 q 113 1157 82 1157 q 166 1135 144 1157 q 188 1082 188 1114 q 166 1029 188 1051 q 113 1007 144 1007 m 350 1007 q 297 1029 319 1007 q 275 1082 275 1051 q 297 1135 275 1114 q 350 1157 319 1157 q 403 1135 382 1157 q 425 1082 425 1114 q 403 1029 425 1051 q 350 1007 382 1007 z "},"Ð":{"ha":1003,"x_min":25,"x_max":951,"o":"m 157 456 l 25 456 l 25 506 l 157 506 l 157 743 q 140 863 157 839 q 26 894 118 894 l 26 919 l 382 919 q 767 843 653 919 q 951 464 951 719 q 828 138 951 264 q 454 0 693 0 l 26 0 l 26 25 q 140 57 118 25 q 157 176 157 81 l 157 456 m 288 506 l 554 506 l 554 456 l 288 456 l 288 68 q 432 50 364 50 q 703 172 603 50 q 796 460 796 285 q 701 750 796 638 q 426 869 601 869 q 288 850 357 869 l 288 506 z "},"Ñ":{"ha":1003,"x_min":-17,"x_max":986,"o":"m 225 724 l 225 176 q 242 57 225 81 q 356 25 264 25 l 356 0 l 35 0 l 35 25 q 149 57 126 25 q 165 176 165 81 l 165 799 q 90 869 124 850 q -17 894 49 894 l -17 919 l 233 919 l 793 232 l 796 232 l 796 743 q 779 863 796 839 q 665 894 757 894 l 665 919 l 986 919 l 986 894 q 872 863 894 894 q 856 743 856 839 l 856 -15 l 831 -15 l 228 724 l 225 724 m 307 992 l 286 992 q 314 1113 285 1064 q 415 1169 349 1169 q 535 1122 463 1169 q 633 1075 607 1075 q 699 1169 685 1075 l 719 1169 q 692 1049 721 1097 q 590 992 657 992 q 471 1039 543 992 q 372 1086 399 1086 q 307 992 321 1086 z "},"Ò":{"ha":1003,"x_min":51,"x_max":951,"o":"m 501 -21 q 174 124 301 -21 q 51 460 51 261 q 174 796 51 658 q 501 940 301 940 q 829 796 701 940 q 951 460 951 658 q 829 124 951 261 q 501 -21 701 -21 m 501 29 q 735 167 658 29 q 796 460 796 279 q 735 753 796 640 q 501 890 658 890 q 269 753 344 890 q 207 460 207 640 q 269 167 207 279 q 501 29 344 29 m 351 1219 l 503 1219 l 574 985 l 550 985 l 351 1219 z "},"Ó":{"ha":1003,"x_min":51,"x_max":951,"o":"m 501 -21 q 174 124 301 -21 q 51 460 51 261 q 174 796 51 658 q 501 940 301 940 q 829 796 701 940 q 951 460 951 658 q 829 124 951 261 q 501 -21 701 -21 m 501 29 q 735 167 658 29 q 796 460 796 279 q 735 753 796 640 q 501 890 658 890 q 269 753 344 890 q 207 460 207 640 q 269 167 207 279 q 501 29 344 29 m 501 1219 l 653 1219 l 454 985 l 431 985 l 501 1219 z "},"Ô":{"ha":1003,"x_min":51,"x_max":951,"o":"m 501 -21 q 174 124 301 -21 q 51 460 51 261 q 174 796 51 658 q 501 940 301 940 q 829 796 701 940 q 951 460 951 658 q 829 124 951 261 q 501 -21 701 -21 m 501 29 q 735 167 658 29 q 796 460 796 279 q 735 753 796 640 q 501 890 658 890 q 269 753 344 890 q 207 460 207 640 q 269 167 207 279 q 501 29 344 29 m 439 1201 l 564 1201 l 693 978 l 671 978 l 501 1121 l 332 978 l 310 978 l 439 1201 z "},"Õ":{"ha":1003,"x_min":51,"x_max":951,"o":"m 501 -21 q 174 124 301 -21 q 51 460 51 261 q 174 796 51 658 q 501 940 301 940 q 829 796 701 940 q 951 460 951 658 q 829 124 951 261 q 501 -21 701 -21 m 501 29 q 735 167 658 29 q 796 460 796 279 q 735 753 796 640 q 501 890 658 890 q 269 753 344 890 q 207 460 207 640 q 269 167 207 279 q 501 29 344 29 m 307 992 l 286 992 q 314 1113 285 1064 q 415 1169 349 1169 q 535 1122 463 1169 q 633 1075 607 1075 q 699 1169 685 1075 l 719 1169 q 692 1049 721 1097 q 590 992 657 992 q 471 1039 543 992 q 372 1086 399 1086 q 307 992 321 1086 z "},"Ö":{"ha":1003,"x_min":51,"x_max":951,"o":"m 501 -21 q 174 124 301 -21 q 51 460 51 261 q 174 796 51 658 q 501 940 301 940 q 829 796 701 940 q 951 460 951 658 q 829 124 951 261 q 501 -21 701 -21 m 501 29 q 735 167 658 29 q 796 460 796 279 q 735 753 796 640 q 501 890 658 890 q 269 753 344 890 q 207 460 207 640 q 269 167 207 279 q 501 29 344 29 m 383 1007 q 331 1029 353 1007 q 308 1082 308 1051 q 331 1135 308 1114 q 383 1157 353 1157 q 437 1135 415 1157 q 458 1082 458 1114 q 437 1029 458 1051 q 383 1007 415 1007 m 621 1007 q 568 1029 590 1007 q 546 1082 546 1051 q 568 1135 546 1114 q 621 1157 590 1157 q 674 1135 653 1157 q 696 1082 696 1114 q 674 1029 696 1051 q 621 1007 653 1007 z "},"×":{"ha":783,"x_min":113,"x_max":671,"o":"m 113 221 l 353 461 l 113 701 l 151 740 l 392 500 l 632 740 l 671 701 l 431 461 l 671 221 l 632 182 l 392 422 l 151 182 l 113 221 z "},"Ø":{"ha":1003,"x_min":51,"x_max":951,"o":"m 747 721 l 283 146 q 501 29 357 29 q 735 167 658 29 q 796 460 796 279 q 747 721 796 619 m 257 194 l 722 768 q 501 890 651 890 q 269 753 344 890 q 207 460 207 640 q 257 194 207 300 m 907 919 l 818 808 q 951 460 951 668 q 829 124 951 261 q 501 -21 701 -21 q 225 75 343 -21 l 139 -32 l 99 0 l 188 110 q 51 460 51 249 q 174 796 51 658 q 501 940 301 940 q 782 842 663 940 l 868 949 l 907 919 z "},"Ù":{"ha":1003,"x_min":13,"x_max":989,"o":"m 143 329 l 143 743 q 126 863 143 839 q 13 894 104 894 l 13 919 l 404 919 l 404 894 q 290 863 313 894 q 274 743 274 839 l 274 376 q 296 172 274 236 q 381 71 318 107 q 511 39 438 39 q 754 151 678 39 q 799 401 799 218 l 799 743 q 782 863 799 839 q 668 894 760 894 l 668 919 l 989 919 l 989 894 q 875 863 897 894 q 858 743 858 839 l 858 333 q 504 -21 858 -21 q 143 329 143 -21 m 351 1219 l 503 1219 l 574 985 l 550 985 l 351 1219 z "},"Ú":{"ha":1003,"x_min":13,"x_max":989,"o":"m 143 329 l 143 743 q 126 863 143 839 q 13 894 104 894 l 13 919 l 404 919 l 404 894 q 290 863 313 894 q 274 743 274 839 l 274 376 q 296 172 274 236 q 381 71 318 107 q 511 39 438 39 q 754 151 678 39 q 799 401 799 218 l 799 743 q 782 863 799 839 q 668 894 760 894 l 668 919 l 989 919 l 989 894 q 875 863 897 894 q 858 743 858 839 l 858 333 q 504 -21 858 -21 q 143 329 143 -21 m 526 1219 l 678 1219 l 479 985 l 456 985 l 526 1219 z "},"Û":{"ha":1003,"x_min":13,"x_max":989,"o":"m 143 329 l 143 743 q 126 863 143 839 q 13 894 104 894 l 13 919 l 404 919 l 404 894 q 290 863 313 894 q 274 743 274 839 l 274 376 q 296 172 274 236 q 381 71 318 107 q 511 39 438 39 q 754 151 678 39 q 799 401 799 218 l 799 743 q 782 863 799 839 q 668 894 760 894 l 668 919 l 989 919 l 989 894 q 875 863 897 894 q 858 743 858 839 l 858 333 q 504 -21 858 -21 q 143 329 143 -21 m 439 1201 l 564 1201 l 693 978 l 671 978 l 501 1121 l 332 978 l 310 978 l 439 1201 z "},"Ü":{"ha":1003,"x_min":13,"x_max":989,"o":"m 143 329 l 143 743 q 126 863 143 839 q 13 894 104 894 l 13 919 l 404 919 l 404 894 q 290 863 313 894 q 274 743 274 839 l 274 376 q 296 172 274 236 q 381 71 318 107 q 511 39 438 39 q 754 151 678 39 q 799 401 799 218 l 799 743 q 782 863 799 839 q 668 894 760 894 l 668 919 l 989 919 l 989 894 q 875 863 897 894 q 858 743 858 839 l 858 333 q 504 -21 858 -21 q 143 329 143 -21 m 383 1007 q 331 1029 353 1007 q 308 1082 308 1051 q 331 1135 308 1114 q 383 1157 353 1157 q 437 1135 415 1157 q 458 1082 458 1114 q 437 1029 458 1051 q 383 1007 415 1007 m 621 1007 q 568 1029 590 1007 q 546 1082 546 1051 q 568 1135 546 1114 q 621 1157 590 1157 q 674 1135 653 1157 q 696 1082 696 1114 q 674 1029 696 1051 q 621 1007 653 1007 z "},"Ý":{"ha":1003,"x_min":18,"x_max":988,"o":"m 539 450 l 710 719 q 760 828 760 799 q 667 894 760 894 l 667 919 l 988 919 l 988 894 q 800 758 886 894 l 567 390 l 567 176 q 583 57 567 81 q 697 25 606 25 l 697 0 l 306 0 l 306 25 q 419 57 397 25 q 436 176 436 81 l 436 378 l 151 811 q 18 894 97 894 l 18 919 l 411 919 l 411 894 q 304 833 304 894 q 335 765 304 813 l 539 450 m 550 1219 l 701 1219 l 503 985 l 479 985 l 550 1219 z "},"Þ":{"ha":772,"x_min":26,"x_max":721,"o":"m 157 176 l 157 743 q 140 863 157 839 q 26 894 118 894 l 26 919 l 418 919 l 418 894 q 304 863 326 894 q 288 743 288 839 l 288 711 l 386 711 q 656 625 569 711 q 721 457 721 560 q 649 286 721 354 q 403 207 563 207 l 288 207 l 288 176 q 304 57 288 81 q 418 25 326 25 l 418 0 l 26 0 l 26 25 q 140 57 118 25 q 157 176 157 81 m 288 661 l 288 257 l 364 257 q 510 313 454 257 q 565 467 565 369 q 494 614 565 563 q 319 661 429 661 l 288 661 z "},"ß":{"ha":694,"x_min":17,"x_max":647,"o":"m 225 0 l 17 0 l 17 25 q 91 44 69 26 q 113 118 113 61 l 113 660 q 354 964 113 964 q 525 906 457 964 q 593 746 593 847 q 464 558 593 606 l 464 556 q 604 457 557 535 q 647 286 647 388 q 592 89 647 172 q 421 -8 528 -8 q 331 22 369 -8 q 292 101 292 51 q 350 160 292 160 q 404 104 404 160 q 399 85 404 97 q 394 64 394 72 q 432 33 394 33 q 515 97 489 33 q 535 211 535 144 q 494 415 535 333 q 333 525 442 524 l 333 564 q 481 751 481 558 q 351 917 481 917 q 240 839 268 917 q 225 686 225 793 l 225 0 z "},"à":{"ha":617,"x_min":47,"x_max":611,"o":"m 504 472 l 504 174 q 508 97 504 115 q 539 67 515 67 q 611 121 557 67 l 611 82 q 467 -19 533 -19 q 392 82 392 -19 q 303 14 347 49 q 196 -19 250 -19 q 87 26 126 -19 q 47 143 47 72 q 111 269 47 214 q 251 349 158 310 q 392 404 322 376 q 375 540 392 501 q 278 599 350 599 q 214 579 240 599 q 185 517 185 556 q 128 418 185 418 q 71 485 71 418 q 115 576 71 532 q 300 640 178 640 q 504 472 504 640 m 392 126 l 392 364 q 240 293 279 318 q 160 172 160 242 q 188 93 160 128 q 258 58 215 58 q 392 126 310 58 m 158 947 l 310 947 l 381 713 l 357 713 l 158 947 z "},"á":{"ha":617,"x_min":47,"x_max":611,"o":"m 504 472 l 504 174 q 508 97 504 115 q 539 67 515 67 q 611 121 557 67 l 611 82 q 467 -19 533 -19 q 392 82 392 -19 q 303 14 347 49 q 196 -19 250 -19 q 87 26 126 -19 q 47 143 47 72 q 111 269 47 214 q 251 349 158 310 q 392 404 322 376 q 375 540 392 501 q 278 599 350 599 q 214 579 240 599 q 185 517 185 556 q 128 418 185 418 q 71 485 71 418 q 115 576 71 532 q 300 640 178 640 q 504 472 504 640 m 392 126 l 392 364 q 240 293 279 318 q 160 172 160 242 q 188 93 160 128 q 258 58 215 58 q 392 126 310 58 m 308 947 l 460 947 l 261 713 l 238 713 l 308 947 z "},"â":{"ha":617,"x_min":47,"x_max":611,"o":"m 504 472 l 504 174 q 508 97 504 115 q 539 67 515 67 q 611 121 557 67 l 611 82 q 467 -19 533 -19 q 392 82 392 -19 q 303 14 347 49 q 196 -19 250 -19 q 87 26 126 -19 q 47 143 47 72 q 111 269 47 214 q 251 349 158 310 q 392 404 322 376 q 375 540 392 501 q 278 599 350 599 q 214 579 240 599 q 185 517 185 556 q 128 418 185 418 q 71 485 71 418 q 115 576 71 532 q 300 640 178 640 q 504 472 504 640 m 392 126 l 392 364 q 240 293 279 318 q 160 172 160 242 q 188 93 160 128 q 258 58 215 58 q 392 126 310 58 m 246 940 l 371 940 l 500 717 l 478 717 l 308 860 l 139 717 l 117 717 l 246 940 z "},"ã":{"ha":617,"x_min":47,"x_max":611,"o":"m 504 472 l 504 174 q 508 97 504 115 q 539 67 515 67 q 611 121 557 67 l 611 82 q 467 -19 533 -19 q 392 82 392 -19 q 303 14 347 49 q 196 -19 250 -19 q 87 26 126 -19 q 47 143 47 72 q 111 269 47 214 q 251 349 158 310 q 392 404 322 376 q 375 540 392 501 q 278 599 350 599 q 214 579 240 599 q 185 517 185 556 q 128 418 185 418 q 71 485 71 418 q 115 576 71 532 q 300 640 178 640 q 504 472 504 640 m 392 126 l 392 364 q 240 293 279 318 q 160 172 160 242 q 188 93 160 128 q 258 58 215 58 q 392 126 310 58 m 114 743 l 93 743 q 121 864 92 815 q 222 921 156 921 q 342 874 269 921 q 440 826 414 826 q 506 921 492 826 l 526 921 q 499 800 528 849 q 397 743 464 743 q 278 790 350 743 q 179 838 206 838 q 114 743 128 838 z "},"ä":{"ha":617,"x_min":47,"x_max":611,"o":"m 504 472 l 504 174 q 508 97 504 115 q 539 67 515 67 q 611 121 557 67 l 611 82 q 467 -19 533 -19 q 392 82 392 -19 q 303 14 347 49 q 196 -19 250 -19 q 87 26 126 -19 q 47 143 47 72 q 111 269 47 214 q 251 349 158 310 q 392 404 322 376 q 375 540 392 501 q 278 599 350 599 q 214 579 240 599 q 185 517 185 556 q 128 418 185 418 q 71 485 71 418 q 115 576 71 532 q 300 640 178 640 q 504 472 504 640 m 392 126 l 392 364 q 240 293 279 318 q 160 172 160 242 q 188 93 160 128 q 258 58 215 58 q 392 126 310 58 m 190 760 q 138 782 160 760 q 115 835 115 804 q 138 888 115 867 q 190 910 160 910 q 244 888 222 910 q 265 835 265 867 q 244 782 265 804 q 190 760 222 760 m 428 760 q 375 782 397 760 q 353 835 353 804 q 375 888 353 867 q 428 910 397 910 q 481 888 460 910 q 503 835 503 867 q 481 782 503 804 q 428 760 460 760 z "},"å":{"ha":617,"x_min":47,"x_max":611,"o":"m 504 472 l 504 174 q 508 97 504 115 q 539 67 515 67 q 611 121 557 67 l 611 82 q 467 -19 533 -19 q 392 82 392 -19 q 303 14 347 49 q 196 -19 250 -19 q 87 26 126 -19 q 47 143 47 72 q 111 269 47 214 q 251 349 158 310 q 392 404 322 376 q 375 540 392 501 q 278 599 350 599 q 214 579 240 599 q 185 517 185 556 q 128 418 185 418 q 71 485 71 418 q 115 576 71 532 q 300 640 178 640 q 504 472 504 640 m 392 126 l 392 364 q 240 293 279 318 q 160 172 160 242 q 188 93 160 128 q 258 58 215 58 q 392 126 310 58 m 179 832 q 217 924 179 886 q 310 963 256 963 q 402 924 364 963 q 440 832 440 886 q 402 740 440 778 q 310 701 364 701 q 217 740 256 701 q 179 832 179 778 m 226 832 q 251 773 226 797 q 310 749 275 749 q 369 773 344 749 q 393 832 393 797 q 369 891 393 867 q 310 915 344 915 q 251 891 275 915 q 226 832 226 867 z "},"æ":{"ha":926,"x_min":47,"x_max":883,"o":"m 882 386 l 492 386 l 492 311 q 549 131 492 190 q 667 83 594 83 q 860 232 800 83 l 882 217 q 797 53 857 117 q 633 -19 729 -19 q 518 6 563 -19 q 429 89 474 31 q 201 -19 299 -19 q 76 43 117 -19 q 47 139 47 88 q 178 313 47 253 l 379 406 l 379 444 q 367 547 379 518 q 278 599 344 599 q 214 579 240 599 q 185 517 185 556 q 128 418 185 418 q 71 485 71 418 q 115 576 71 532 q 300 640 178 640 q 479 557 446 640 q 658 640 538 640 q 828 565 768 640 q 882 386 883 497 m 411 125 q 379 363 379 193 q 208 272 257 313 q 160 175 160 232 q 190 89 160 124 q 271 54 221 54 q 411 125 322 54 m 492 428 l 749 428 q 628 590 749 590 q 525 540 563 590 q 492 428 493 496 z "},"ç":{"ha":617,"x_min":47,"x_max":571,"o":"m 340 -18 l 325 -43 q 410 -142 410 -64 q 365 -231 410 -197 q 264 -264 321 -264 q 200 -260 233 -264 l 200 -231 q 233 -233 222 -233 q 290 -212 265 -233 q 315 -158 315 -190 q 243 -110 315 -104 l 299 -19 q 108 92 178 -11 q 47 310 47 182 q 126 539 47 446 q 344 639 211 639 q 479 601 417 639 q 553 490 553 558 q 490 433 553 433 q 422 475 438 433 q 403 553 413 514 q 321 594 383 594 q 194 519 239 594 q 157 368 157 457 q 204 182 157 263 q 360 86 261 86 q 551 246 482 86 l 571 236 q 340 -18 528 15 z "},"è":{"ha":617,"x_min":47,"x_max":572,"o":"m 572 386 l 142 386 q 197 188 142 271 q 365 92 260 92 q 551 240 499 92 l 572 226 q 489 56 553 124 q 318 -19 418 -19 q 125 70 203 -19 q 47 300 47 160 q 117 538 47 444 q 335 640 194 640 q 507 569 442 640 q 572 386 572 499 m 143 428 l 431 428 q 397 542 431 497 q 289 590 358 590 q 189 541 231 590 q 143 428 147 492 m 163 947 l 314 947 l 385 713 l 361 713 l 163 947 z "},"é":{"ha":617,"x_min":47,"x_max":572,"o":"m 572 386 l 142 386 q 197 188 142 271 q 365 92 260 92 q 551 240 499 92 l 572 226 q 489 56 553 124 q 318 -19 418 -19 q 125 70 203 -19 q 47 300 47 160 q 117 538 47 444 q 335 640 194 640 q 507 569 442 640 q 572 386 572 499 m 143 428 l 431 428 q 397 542 431 497 q 289 590 358 590 q 189 541 231 590 q 143 428 147 492 m 315 947 l 467 947 l 268 713 l 244 713 l 315 947 z "},"ê":{"ha":617,"x_min":47,"x_max":572,"o":"m 572 386 l 142 386 q 197 188 142 271 q 365 92 260 92 q 551 240 499 92 l 572 226 q 489 56 553 124 q 318 -19 418 -19 q 125 70 203 -19 q 47 300 47 160 q 117 538 47 444 q 335 640 194 640 q 507 569 442 640 q 572 386 572 499 m 143 428 l 431 428 q 397 542 431 497 q 289 590 358 590 q 189 541 231 590 q 143 428 147 492 m 253 940 l 378 940 l 507 717 l 485 717 l 315 860 l 146 717 l 124 717 l 253 940 z "},"ë":{"ha":617,"x_min":47,"x_max":572,"o":"m 572 386 l 142 386 q 197 188 142 271 q 365 92 260 92 q 551 240 499 92 l 572 226 q 489 56 553 124 q 318 -19 418 -19 q 125 70 203 -19 q 47 300 47 160 q 117 538 47 444 q 335 640 194 640 q 507 569 442 640 q 572 386 572 499 m 143 428 l 431 428 q 397 542 431 497 q 289 590 358 590 q 189 541 231 590 q 143 428 147 492 m 197 760 q 144 782 167 760 q 122 835 122 804 q 144 888 122 867 q 197 910 167 910 q 251 888 229 910 q 272 835 272 867 q 251 782 272 804 q 197 760 229 760 m 435 760 q 382 782 404 760 q 360 835 360 804 q 382 888 360 867 q 435 910 404 910 q 488 888 467 910 q 510 835 510 867 q 488 782 510 804 q 435 760 467 760 z "},"ì":{"ha":386,"x_min":38,"x_max":351,"o":"m 256 640 l 256 118 q 279 42 256 61 q 351 25 299 26 l 351 0 l 47 0 l 47 25 q 122 44 100 26 q 143 118 143 61 l 143 457 q 94 551 143 551 q 47 540 75 551 l 38 564 l 225 640 l 256 640 m 43 947 l 194 947 l 265 713 l 242 713 l 43 947 z "},"í":{"ha":386,"x_min":38,"x_max":351,"o":"m 256 640 l 256 118 q 279 42 256 61 q 351 25 299 26 l 351 0 l 47 0 l 47 25 q 122 44 100 26 q 143 118 143 61 l 143 457 q 94 551 143 551 q 47 540 75 551 l 38 564 l 225 640 l 256 640 m 193 947 l 344 947 l 146 713 l 122 713 l 193 947 z "},"î":{"ha":386,"x_min":1,"x_max":385,"o":"m 256 640 l 256 118 q 279 42 256 61 q 351 25 299 26 l 351 0 l 47 0 l 47 25 q 122 44 100 26 q 143 118 143 61 l 143 457 q 94 551 143 551 q 47 540 75 551 l 38 564 l 225 640 l 256 640 m 131 940 l 256 940 l 385 717 l 363 717 l 193 860 l 24 717 l 1 717 l 131 940 z "},"ï":{"ha":386,"x_min":0,"x_max":388,"o":"m 256 640 l 256 118 q 279 42 256 61 q 351 25 299 26 l 351 0 l 47 0 l 47 25 q 122 44 100 26 q 143 118 143 61 l 143 457 q 94 551 143 551 q 47 540 75 551 l 38 564 l 225 640 l 256 640 m 75 760 q 22 782 44 760 q 0 835 0 804 q 22 888 0 867 q 75 910 44 910 q 128 888 107 910 q 150 835 150 867 q 128 782 150 804 q 75 760 107 760 m 313 760 q 260 782 282 760 q 238 835 238 804 q 260 888 238 867 q 313 910 282 910 q 366 888 344 910 q 388 835 388 867 q 366 782 388 804 q 313 760 344 760 z "},"ð":{"ha":694,"x_min":47,"x_max":647,"o":"m 322 794 l 146 699 l 126 735 l 292 829 q 160 936 228 897 l 188 964 q 347 861 271 924 l 535 964 l 558 926 l 388 829 q 571 607 501 733 q 647 333 647 468 q 575 100 647 200 q 339 -19 490 -19 q 126 81 211 -19 q 47 304 47 174 q 124 528 47 429 q 333 635 208 635 q 444 594 404 635 l 447 597 q 322 794 403 699 m 325 593 q 224 546 264 593 q 174 364 174 485 q 214 151 174 244 q 371 28 268 28 q 521 267 521 28 q 481 475 521 385 q 325 593 428 593 z "},"ñ":{"ha":694,"x_min":7,"x_max":689,"o":"m 225 640 l 225 510 q 331 607 289 579 q 436 640 381 640 q 557 575 515 640 q 593 431 593 518 l 593 118 q 617 42 593 61 q 689 25 636 26 l 689 0 l 385 0 l 385 25 q 459 44 438 26 q 481 118 481 61 l 481 406 q 382 557 481 557 q 225 468 311 557 l 225 118 q 249 42 225 61 q 321 25 268 26 l 321 0 l 17 0 l 17 25 q 91 44 69 26 q 113 118 113 61 l 113 457 q 64 551 113 551 q 17 540 44 551 l 7 564 l 194 640 l 225 640 m 153 743 l 132 743 q 160 864 131 815 q 261 921 194 921 q 381 874 308 921 q 479 826 453 826 q 544 921 531 826 l 565 921 q 538 800 567 849 q 436 743 503 743 q 317 790 389 743 q 218 838 244 838 q 153 743 167 838 z "},"ò":{"ha":694,"x_min":47,"x_max":647,"o":"m 349 640 q 562 547 476 640 q 647 325 647 454 q 575 99 647 197 q 339 -19 489 -19 q 126 81 211 -19 q 47 304 47 174 q 129 536 47 438 q 349 640 217 640 m 325 593 q 224 546 264 593 q 174 364 174 485 q 214 151 174 244 q 371 28 268 28 q 521 267 521 28 q 481 475 521 385 q 325 593 428 593 m 197 947 l 349 947 l 419 713 l 396 713 l 197 947 z "},"ó":{"ha":694,"x_min":47,"x_max":647,"o":"m 349 640 q 562 547 476 640 q 647 325 647 454 q 575 99 647 197 q 339 -19 489 -19 q 126 81 211 -19 q 47 304 47 174 q 129 536 47 438 q 349 640 217 640 m 325 593 q 224 546 264 593 q 174 364 174 485 q 214 151 174 244 q 371 28 268 28 q 521 267 521 28 q 481 475 521 385 q 325 593 428 593 m 347 947 l 499 947 l 300 713 l 276 713 l 347 947 z "},"ô":{"ha":694,"x_min":47,"x_max":647,"o":"m 349 640 q 562 547 476 640 q 647 325 647 454 q 575 99 647 197 q 339 -19 489 -19 q 126 81 211 -19 q 47 304 47 174 q 129 536 47 438 q 349 640 217 640 m 325 593 q 224 546 264 593 q 174 364 174 485 q 214 151 174 244 q 371 28 268 28 q 521 267 521 28 q 481 475 521 385 q 325 593 428 593 m 285 940 l 410 940 l 539 717 l 517 717 l 347 860 l 178 717 l 156 717 l 285 940 z "},"õ":{"ha":694,"x_min":47,"x_max":647,"o":"m 349 640 q 562 547 476 640 q 647 325 647 454 q 575 99 647 197 q 339 -19 489 -19 q 126 81 211 -19 q 47 304 47 174 q 129 536 47 438 q 349 640 217 640 m 325 593 q 224 546 264 593 q 174 364 174 485 q 214 151 174 244 q 371 28 268 28 q 521 267 521 28 q 481 475 521 385 q 325 593 428 593 m 153 743 l 132 743 q 160 864 131 815 q 261 921 194 921 q 381 874 308 921 q 479 826 453 826 q 544 921 531 826 l 565 921 q 538 800 567 849 q 436 743 503 743 q 317 790 389 743 q 218 838 244 838 q 153 743 167 838 z "},"ö":{"ha":694,"x_min":47,"x_max":647,"o":"m 349 640 q 562 547 476 640 q 647 325 647 454 q 575 99 647 197 q 339 -19 489 -19 q 126 81 211 -19 q 47 304 47 174 q 129 536 47 438 q 349 640 217 640 m 325 593 q 224 546 264 593 q 174 364 174 485 q 214 151 174 244 q 371 28 268 28 q 521 267 521 28 q 481 475 521 385 q 325 593 428 593 m 229 760 q 176 782 199 760 q 154 835 154 804 q 176 888 154 867 q 229 910 199 910 q 283 888 261 910 q 304 835 304 867 q 283 782 304 804 q 229 760 261 760 m 467 760 q 414 782 436 760 q 392 835 392 804 q 414 888 392 867 q 467 910 436 910 q 520 888 499 910 q 542 835 542 867 q 520 782 542 804 q 467 760 499 760 z "},"÷":{"ha":783,"x_min":28,"x_max":757,"o":"m 757 433 l 28 433 l 28 489 l 757 489 l 757 433 m 392 193 q 349 210 367 193 q 332 253 332 228 q 349 295 332 278 q 392 313 367 313 q 434 295 417 313 q 451 253 451 278 q 434 210 451 228 q 392 193 417 193 m 392 610 q 349 627 367 610 q 332 669 332 644 q 349 712 332 694 q 392 729 367 729 q 434 712 417 729 q 451 669 451 694 q 434 627 451 644 q 392 610 417 610 z "},"ø":{"ha":694,"x_min":26,"x_max":668,"o":"m 204 182 l 475 485 q 325 593 425 593 q 224 546 264 593 q 174 364 174 485 q 204 182 174 268 m 493 440 l 222 139 q 371 28 274 28 q 521 267 521 28 q 493 440 521 363 m 668 636 l 575 532 q 647 325 647 444 q 575 99 647 197 q 339 -19 489 -19 q 150 57 231 -19 l 58 -44 l 26 -15 l 121 89 q 47 304 47 179 q 129 536 47 438 q 349 640 217 640 q 546 564 461 640 l 636 665 l 668 636 z "},"ù":{"ha":694,"x_min":4,"x_max":694,"o":"m 589 621 l 589 164 q 638 69 589 69 q 685 81 657 69 l 694 57 l 507 -19 l 476 -19 l 476 113 q 382 22 415 46 q 265 -19 326 -19 q 149 38 190 -19 q 107 185 107 94 l 107 488 q 88 575 107 556 q 4 596 69 594 l 4 621 l 219 621 l 219 189 q 324 64 219 64 q 476 153 390 64 l 476 488 q 458 575 476 556 q 374 596 439 594 l 374 621 l 589 621 m 197 947 l 349 947 l 419 713 l 396 713 l 197 947 z "},"ú":{"ha":694,"x_min":4,"x_max":694,"o":"m 589 621 l 589 164 q 638 69 589 69 q 685 81 657 69 l 694 57 l 507 -19 l 476 -19 l 476 113 q 382 22 415 46 q 265 -19 326 -19 q 149 38 190 -19 q 107 185 107 94 l 107 488 q 88 575 107 556 q 4 596 69 594 l 4 621 l 219 621 l 219 189 q 324 64 219 64 q 476 153 390 64 l 476 488 q 458 575 476 556 q 374 596 439 594 l 374 621 l 589 621 m 347 947 l 499 947 l 300 713 l 276 713 l 347 947 z "},"û":{"ha":694,"x_min":4,"x_max":694,"o":"m 589 621 l 589 164 q 638 69 589 69 q 685 81 657 69 l 694 57 l 507 -19 l 476 -19 l 476 113 q 382 22 415 46 q 265 -19 326 -19 q 149 38 190 -19 q 107 185 107 94 l 107 488 q 88 575 107 556 q 4 596 69 594 l 4 621 l 219 621 l 219 189 q 324 64 219 64 q 476 153 390 64 l 476 488 q 458 575 476 556 q 374 596 439 594 l 374 621 l 589 621 m 285 940 l 410 940 l 539 717 l 517 717 l 347 860 l 178 717 l 156 717 l 285 940 z "},"ü":{"ha":694,"x_min":4,"x_max":694,"o":"m 589 621 l 589 164 q 638 69 589 69 q 685 81 657 69 l 694 57 l 507 -19 l 476 -19 l 476 113 q 382 22 415 46 q 265 -19 326 -19 q 149 38 190 -19 q 107 185 107 94 l 107 488 q 88 575 107 556 q 4 596 69 594 l 4 621 l 219 621 l 219 189 q 324 64 219 64 q 476 153 390 64 l 476 488 q 458 575 476 556 q 374 596 439 594 l 374 621 l 589 621 m 229 760 q 176 782 199 760 q 154 835 154 804 q 176 888 154 867 q 229 910 199 910 q 283 888 261 910 q 304 835 304 867 q 283 782 304 804 q 229 760 261 760 m 467 760 q 414 782 436 760 q 392 835 392 804 q 414 888 392 867 q 467 910 436 910 q 520 888 499 910 q 542 835 542 867 q 520 782 542 804 q 467 760 499 760 z "},"ý":{"ha":694,"x_min":8,"x_max":686,"o":"m 342 25 l 125 478 q 8 596 72 589 l 8 621 l 297 621 l 297 596 q 222 546 222 596 q 251 461 222 521 l 396 164 l 528 490 q 546 561 546 535 q 483 596 546 596 l 483 621 l 686 621 l 686 596 q 603 524 632 596 l 338 -126 q 233 -262 301 -215 q 133 -300 181 -300 q 68 -279 96 -300 q 40 -222 40 -258 q 111 -161 40 -161 q 166 -174 138 -161 q 203 -186 194 -186 q 304 -68 257 -186 l 342 25 m 390 947 l 542 947 l 343 713 l 319 713 l 390 947 z "},"þ":{"ha":694,"x_min":-6,"x_max":644,"o":"m 214 964 l 214 497 l 217 497 q 411 640 300 640 q 589 540 524 640 q 644 335 644 453 q 574 93 644 193 q 358 -19 494 -19 q 214 36 268 -19 l 214 -178 q 235 -253 214 -236 q 321 -271 256 -269 l 321 -296 l -6 -296 l -6 -271 q 81 -253 60 -269 q 101 -178 101 -236 l 101 781 q 53 875 101 875 q 6 864 33 875 l -4 888 l 183 964 l 214 964 m 214 451 l 214 193 q 255 62 214 101 q 361 22 296 22 q 492 108 449 22 q 526 274 526 176 q 490 446 526 369 q 357 543 443 543 q 214 451 294 543 z "},"ÿ":{"ha":694,"x_min":8,"x_max":686,"o":"m 342 25 l 125 478 q 8 596 72 589 l 8 621 l 297 621 l 297 596 q 222 546 222 596 q 251 461 222 521 l 396 164 l 528 490 q 546 561 546 535 q 483 596 546 596 l 483 621 l 686 621 l 686 596 q 603 524 632 596 l 338 -126 q 233 -262 301 -215 q 133 -300 181 -300 q 68 -279 96 -300 q 40 -222 40 -258 q 111 -161 40 -161 q 166 -174 138 -161 q 203 -186 194 -186 q 304 -68 257 -186 l 342 25 m 229 760 q 176 782 199 760 q 154 835 154 804 q 176 888 154 867 q 229 910 199 910 q 283 888 261 910 q 304 835 304 867 q 283 782 304 804 q 229 760 261 760 m 467 760 q 414 782 436 760 q 392 835 392 804 q 414 888 392 867 q 467 910 436 910 q 520 888 499 910 q 542 835 542 867 q 520 782 542 804 q 467 760 499 760 z "},"ı":{"ha":386,"x_min":38,"x_max":351,"o":"m 256 640 l 256 118 q 279 42 256 61 q 351 25 299 26 l 351 0 l 47 0 l 47 25 q 122 44 100 26 q 143 118 143 61 l 143 457 q 94 551 143 551 q 47 540 75 551 l 38 564 l 225 640 l 256 640 z "},"Ł":{"ha":849,"x_min":17,"x_max":817,"o":"m 288 729 l 288 543 l 442 669 l 442 606 l 288 475 l 288 181 q 296 94 288 115 q 350 60 308 60 l 556 60 q 697 103 642 60 q 794 254 751 146 l 817 250 l 738 0 l 26 0 l 26 25 q 140 57 118 25 q 157 176 157 81 l 157 368 l 17 256 l 17 318 l 157 435 l 157 743 q 140 863 157 839 q 26 894 118 894 l 26 919 l 442 919 l 442 894 q 307 858 333 894 q 288 729 288 833 z "},"ł":{"ha":386,"x_min":22,"x_max":376,"o":"m 256 964 l 256 550 l 376 649 l 376 592 l 256 493 l 256 118 q 279 42 256 61 q 351 25 299 26 l 351 0 l 47 0 l 47 25 q 122 44 100 26 q 143 118 143 61 l 143 400 l 22 300 l 22 357 l 143 457 l 143 781 q 94 875 143 875 q 47 864 75 875 l 38 888 l 225 964 l 256 964 z "},"Œ":{"ha":1235,"x_min":51,"x_max":1203,"o":"m 749 869 l 749 506 l 858 506 q 976 526 947 506 q 1019 640 1014 553 l 1044 640 l 1044 319 l 1019 319 q 975 435 1011 408 q 858 456 946 456 l 749 456 l 749 119 q 765 63 749 76 q 824 50 781 50 l 938 50 q 1076 94 1024 50 q 1176 231 1117 128 l 1203 231 l 1125 0 l 639 0 q 555 -5 611 0 q 471 -10 499 -10 q 163 132 281 -10 q 51 460 51 265 q 143 760 51 628 q 485 929 261 929 q 590 924 519 929 q 694 919 660 919 l 1118 919 l 1131 718 l 1103 718 q 1044 846 1083 819 q 908 869 1011 869 l 749 869 m 618 247 l 618 767 q 488 882 618 882 q 260 738 332 882 q 207 456 207 629 q 261 182 207 293 q 478 38 332 38 q 603 97 576 38 q 618 247 618 131 z "},"œ":{"ha":1003,"x_min":47,"x_max":960,"o":"m 960 386 l 586 386 q 628 185 586 264 q 772 92 676 92 q 936 242 893 92 l 960 229 q 728 -19 914 -19 q 546 90 604 -19 q 331 -19 464 -19 q 121 78 199 -19 q 47 303 47 168 q 121 536 47 440 q 335 640 201 640 q 546 532 474 640 q 739 640 618 640 q 901 572 843 640 q 960 386 960 504 m 314 600 q 174 361 174 600 q 208 154 174 247 q 349 28 256 28 q 486 257 486 28 q 451 479 486 386 q 314 600 406 600 m 588 428 l 826 428 q 797 540 826 496 q 706 590 765 590 q 617 535 650 590 q 588 428 589 488 z "},"Š":{"ha":772,"x_min":90,"x_max":700,"o":"m 639 940 l 639 622 l 614 622 q 539 808 607 736 q 357 886 468 886 q 246 845 294 886 q 197 743 197 804 q 328 589 197 665 q 569 451 449 521 q 700 244 700 360 q 621 58 700 133 q 410 -21 539 -21 q 266 5 338 -21 q 165 31 194 31 q 124 -21 129 31 l 99 -21 l 99 294 l 124 294 q 238 81 138 149 q 396 33 307 33 q 522 71 471 33 q 579 183 579 111 q 453 349 579 269 q 217 486 335 418 q 90 694 90 578 q 171 869 90 799 q 363 940 251 940 q 483 914 413 940 q 567 888 553 888 q 614 940 603 888 l 639 940 m 449 992 l 324 992 l 194 1215 l 217 1215 l 386 1072 l 556 1215 l 578 1215 l 449 992 z "},"š":{"ha":540,"x_min":71,"x_max":494,"o":"m 449 640 l 449 428 l 424 428 q 257 599 385 599 q 186 578 215 599 q 151 514 151 554 q 240 404 151 453 q 406 318 322 361 q 494 167 494 258 q 430 33 494 85 q 282 -19 365 -19 q 157 1 229 -19 q 122 8 132 8 q 97 -10 101 8 l 72 -10 l 72 213 l 97 213 q 160 79 107 136 q 288 22 213 22 q 363 47 332 22 q 394 117 394 72 q 311 232 394 183 q 154 315 233 274 q 71 454 71 371 q 125 590 71 539 q 264 640 179 640 q 343 625 289 640 q 394 614 382 614 q 424 640 414 614 l 449 640 m 332 717 l 207 717 l 78 940 l 100 940 l 269 797 l 439 940 l 461 940 l 332 717 z "},"Ÿ":{"ha":1003,"x_min":18,"x_max":988,"o":"m 539 450 l 710 719 q 760 828 760 799 q 667 894 760 894 l 667 919 l 988 919 l 988 894 q 800 758 886 894 l 567 390 l 567 176 q 583 57 567 81 q 697 25 606 25 l 697 0 l 306 0 l 306 25 q 419 57 397 25 q 436 176 436 81 l 436 378 l 151 811 q 18 894 97 894 l 18 919 l 411 919 l 411 894 q 304 833 304 894 q 335 765 304 813 l 539 450 m 383 1007 q 331 1029 353 1007 q 308 1082 308 1051 q 331 1135 308 1114 q 383 1157 353 1157 q 437 1135 415 1157 q 458 1082 458 1114 q 437 1029 458 1051 q 383 1007 415 1007 m 621 1007 q 568 1029 590 1007 q 546 1082 546 1051 q 568 1135 546 1114 q 621 1157 590 1157 q 674 1135 653 1157 q 696 1082 696 1114 q 674 1029 696 1051 q 621 1007 653 1007 z "},"Ž":{"ha":849,"x_min":15,"x_max":807,"o":"m 192 56 l 572 56 q 708 100 664 56 q 782 243 742 135 l 807 243 l 764 0 l 15 0 l 15 25 l 604 864 l 328 864 q 178 832 217 864 q 124 689 139 800 l 97 689 l 117 919 l 797 919 l 192 56 m 500 992 l 375 992 l 246 1215 l 268 1215 l 438 1072 l 607 1215 l 629 1215 l 500 992 z "},"ž":{"ha":617,"x_min":25,"x_max":592,"o":"m 582 190 l 574 0 l 25 0 l 25 25 l 438 574 l 251 574 q 136 558 160 574 q 94 449 103 536 l 69 449 l 69 621 l 592 621 l 592 596 l 176 47 l 386 47 q 514 67 486 47 q 557 190 547 92 l 582 190 m 379 717 l 254 717 l 125 940 l 147 940 l 317 797 l 486 940 l 508 940 l 379 717 z "},"ƒ":{"ha":694,"x_min":0,"x_max":693,"o":"m 476 608 l 600 608 l 589 561 l 467 561 q 354 93 438 396 q 268 -150 308 -71 q 85 -300 190 -300 q 25 -281 50 -300 q 0 -228 0 -261 q 15 -184 0 -203 q 54 -165 31 -165 q 85 -177 71 -165 q 99 -204 99 -189 q 90 -228 99 -217 q 82 -243 82 -239 q 99 -258 82 -258 q 210 -74 171 -258 q 278 249 271 219 q 353 561 318 432 l 231 561 l 242 608 q 346 632 319 608 q 399 733 371 651 q 464 883 435 839 q 596 964 518 964 q 664 944 635 964 q 693 886 693 924 q 646 833 693 833 q 616 844 629 833 q 603 872 603 856 q 610 894 603 882 q 617 914 617 907 q 594 932 617 932 q 531 883 553 932 q 504 774 518 854 l 476 608 z "},"ˆ":{"ha":463,"x_min":39,"x_max":422,"o":"m 168 989 l 293 989 l 422 765 l 400 765 l 231 908 l 61 765 l 39 765 l 168 989 z "},"ˇ":{"ha":463,"x_min":39,"x_max":422,"o":"m 293 765 l 168 765 l 39 989 l 61 989 l 231 846 l 400 989 l 422 989 l 293 765 z "},"¯":{"ha":463,"x_min":15,"x_max":447,"o":"m 15 878 l 447 878 l 447 790 l 15 790 l 15 878 z "},"˘":{"ha":463,"x_min":36,"x_max":425,"o":"m 36 931 l 58 931 q 231 843 97 843 q 403 931 364 843 l 425 931 q 365 797 422 853 q 231 740 308 740 q 96 797 153 740 q 36 931 39 853 z "},"˙":{"ha":463,"x_min":157,"x_max":307,"o":"m 232 760 q 179 782 201 760 q 157 835 157 804 q 179 888 157 867 q 232 910 201 910 q 285 888 264 910 q 307 835 307 867 q 285 782 307 804 q 232 760 264 760 z "},"˚":{"ha":463,"x_min":101,"x_max":363,"o":"m 101 832 q 140 924 101 886 q 232 963 178 963 q 324 924 286 963 q 363 832 363 886 q 324 740 363 778 q 232 701 286 701 q 140 740 178 701 q 101 832 101 778 m 149 832 q 173 773 149 797 q 232 749 197 749 q 291 773 267 749 q 315 832 315 797 q 291 891 315 867 q 232 915 267 915 q 173 891 197 915 q 149 832 149 867 z "},"˛":{"ha":463,"x_min":100,"x_max":413,"o":"m 156 11 l 190 11 q 172 -58 172 -21 q 215 -153 172 -117 q 317 -189 257 -189 q 399 -174 357 -189 l 413 -194 q 253 -246 321 -246 q 150 -217 193 -246 q 100 -124 100 -182 q 156 11 100 -37 z "},"˜":{"ha":463,"x_min":14,"x_max":450,"o":"m 36 747 l 15 747 q 43 868 14 819 q 144 925 78 925 q 264 878 192 925 q 363 831 336 831 q 428 925 414 831 l 449 925 q 421 804 450 853 q 319 747 386 747 q 200 794 272 747 q 101 842 128 842 q 36 747 50 842 z "},"˝":{"ha":463,"x_min":64,"x_max":449,"o":"m 108 993 l 236 993 l 86 758 l 64 758 l 108 993 m 321 993 l 449 993 l 299 758 l 276 758 l 321 993 z "},"µ":{"ha":694,"x_min":39,"x_max":690,"o":"m 81 621 l 193 621 l 193 242 q 206 126 193 163 q 290 64 226 64 q 449 156 374 64 l 449 621 l 561 621 l 561 165 q 607 54 561 54 q 661 138 653 54 l 690 138 q 657 29 689 72 q 557 -19 619 -19 q 449 110 457 -19 q 235 -19 344 -19 q 133 35 171 -19 l 131 35 q 147 -115 131 -31 q 163 -225 163 -200 q 144 -277 163 -254 q 99 -300 126 -300 q 39 -225 39 -300 q 60 -101 39 -200 q 81 94 81 -3 l 81 621 z "},"–":{"ha":694,"x_min":-12,"x_max":707,"o":"m 707 307 l -12 307 l -12 357 l 707 357 l 707 307 z "},"—":{"ha":1389,"x_min":-12,"x_max":1401,"o":"m 1401 307 l -12 307 l -12 357 l 1401 357 l 1401 307 z "},"‘":{"ha":463,"x_min":128,"x_max":335,"o":"m 304 940 l 304 908 q 228 853 249 874 q 192 769 192 817 q 217 728 192 728 q 240 733 224 728 q 264 739 256 739 q 314 718 293 739 q 335 668 335 697 q 308 610 335 631 q 243 589 282 589 q 160 631 193 589 q 128 724 128 672 q 181 860 128 799 q 304 940 229 918 z "},"’":{"ha":463,"x_min":128,"x_max":335,"o":"m 158 589 l 158 621 q 235 676 214 656 q 271 760 271 713 q 246 801 271 801 q 223 796 239 801 q 199 790 207 790 q 149 811 169 790 q 128 861 128 832 q 154 919 128 899 q 219 940 181 940 q 302 899 269 940 q 335 806 335 857 q 284 671 335 731 q 158 589 233 611 z "},"‚":{"ha":463,"x_min":128,"x_max":335,"o":"m 158 -215 l 158 -183 q 235 -128 214 -149 q 271 -44 271 -92 q 246 -3 271 -3 q 223 -8 239 -3 q 199 -14 207 -14 q 149 7 169 -14 q 128 57 128 28 q 154 115 128 94 q 219 136 181 136 q 302 94 269 136 q 335 1 335 53 q 284 -133 335 -74 q 158 -215 233 -193 z "},"“":{"ha":617,"x_min":43,"x_max":574,"o":"m 219 940 l 219 908 q 143 853 164 874 q 107 769 107 817 q 132 728 107 728 q 155 733 139 728 q 179 739 171 739 q 229 718 208 739 q 250 668 250 697 q 224 610 250 631 q 158 589 197 589 q 76 631 108 589 q 43 724 43 672 q 96 860 43 799 q 219 940 144 918 m 543 940 l 543 908 q 467 853 488 874 q 431 769 431 817 q 456 728 431 728 q 478 733 463 728 q 503 739 494 739 q 553 718 532 739 q 574 668 574 697 q 547 610 574 631 q 482 589 521 589 q 399 631 432 589 q 367 724 367 672 q 419 860 367 799 q 543 940 468 918 z "},"”":{"ha":617,"x_min":43,"x_max":574,"o":"m 397 589 l 397 621 q 474 676 453 656 q 510 760 510 713 q 485 801 510 801 q 462 796 478 801 q 438 790 446 790 q 388 811 408 790 q 367 861 367 832 q 393 919 367 899 q 458 940 419 940 q 541 899 508 940 q 574 806 574 857 q 523 671 574 731 q 397 589 472 611 m 74 589 l 74 621 q 150 676 129 656 q 186 760 186 713 q 161 801 186 801 q 138 796 154 801 q 114 790 122 790 q 64 811 85 790 q 43 861 43 832 q 69 919 43 899 q 135 940 96 940 q 217 899 185 940 q 250 806 250 857 q 199 671 250 731 q 74 589 149 611 z "},"„":{"ha":617,"x_min":43,"x_max":574,"o":"m 397 -215 l 397 -183 q 474 -128 453 -149 q 510 -44 510 -92 q 485 -3 510 -3 q 462 -8 478 -3 q 438 -14 446 -14 q 388 7 408 -14 q 367 57 367 28 q 393 115 367 94 q 458 136 419 136 q 541 94 508 136 q 574 1 574 53 q 523 -133 574 -74 q 397 -215 472 -193 m 74 -215 l 74 -183 q 150 -128 129 -149 q 186 -44 186 -92 q 161 -3 186 -3 q 138 -8 154 -3 q 114 -14 122 -14 q 64 7 85 -14 q 43 57 43 28 q 69 115 43 94 q 135 136 96 136 q 217 94 185 136 q 250 1 250 53 q 199 -133 250 -74 q 74 -215 149 -193 z "},"†":{"ha":694,"x_min":68,"x_max":626,"o":"m 363 -274 l 332 -274 q 265 460 332 207 q 335 619 329 508 q 236 593 300 619 q 142 567 172 567 q 90 585 113 567 q 68 632 68 603 q 90 679 68 661 q 142 697 113 697 q 236 671 172 697 q 335 644 300 644 q 303 759 335 685 q 272 874 272 833 q 292 937 272 910 q 347 964 313 964 q 402 937 382 964 q 422 874 422 910 q 391 759 422 833 q 360 644 360 685 q 458 671 394 644 q 553 697 522 697 q 604 679 582 697 q 626 632 626 661 q 604 585 626 603 q 553 567 582 567 q 458 593 522 567 q 360 619 394 619 q 429 460 365 508 q 363 -274 363 207 z "},"‡":{"ha":694,"x_min":94,"x_max":600,"o":"m 361 689 q 451 713 396 689 q 536 736 507 736 q 600 676 600 736 q 536 617 600 617 q 451 640 507 617 q 361 664 396 664 q 426 549 368 589 q 361 332 361 471 q 426 115 361 193 q 361 0 368 75 q 451 24 396 0 q 536 47 507 47 q 600 -12 600 47 q 536 -72 600 -72 q 451 -49 507 -72 q 361 -25 396 -25 q 388 -128 360 -58 q 417 -224 417 -197 q 397 -278 417 -256 q 347 -300 376 -300 q 298 -278 318 -300 q 278 -224 278 -256 q 306 -128 278 -197 q 333 -25 335 -58 q 243 -49 299 -25 q 158 -72 188 -72 q 94 -12 94 -72 q 158 47 94 47 q 243 24 188 47 q 333 0 299 0 q 268 115 326 75 q 333 332 333 193 q 268 549 333 471 q 333 664 326 589 q 243 640 299 664 q 158 617 188 617 q 94 676 94 617 q 158 736 94 736 q 243 713 188 736 q 333 689 299 689 q 306 792 335 722 q 278 888 278 861 q 298 942 278 919 q 347 964 318 964 q 397 942 376 964 q 417 888 417 919 q 388 792 417 861 q 361 689 360 722 z "},"•":{"ha":486,"x_min":72,"x_max":414,"o":"m 72 460 q 122 581 72 531 q 243 631 172 631 q 364 581 314 631 q 414 460 414 531 q 364 339 414 389 q 243 289 314 289 q 122 339 172 289 q 72 460 72 389 z "},"…":{"ha":1389,"x_min":156,"x_max":1233,"o":"m 231 -19 q 178 3 200 -19 q 156 56 156 25 q 178 109 156 88 q 231 131 200 131 q 284 109 263 131 q 306 56 306 88 q 284 3 306 25 q 231 -19 263 -19 m 694 -19 q 642 3 664 -19 q 619 56 619 25 q 642 109 619 88 q 694 131 664 131 q 748 109 726 131 q 769 56 769 88 q 748 3 769 25 q 694 -19 726 -19 m 1158 -19 q 1106 3 1128 -19 q 1083 56 1083 25 q 1106 109 1083 88 q 1158 131 1128 131 q 1212 109 1190 131 q 1233 56 1233 88 q 1212 3 1233 25 q 1158 -19 1190 -19 z "},"‰":{"ha":1389,"x_min":43,"x_max":1346,"o":"m 239 939 q 385 861 331 939 q 435 690 435 790 q 385 521 435 590 q 239 442 331 442 q 93 521 147 442 q 43 690 43 590 q 93 861 43 790 q 239 939 147 939 m 240 903 q 151 689 151 903 q 238 478 151 478 q 326 692 326 478 q 240 903 326 903 m 697 478 q 843 400 789 478 q 893 229 893 329 q 843 60 893 129 q 697 -19 789 -19 q 551 60 606 -19 q 501 229 501 129 q 551 400 501 329 q 697 478 606 478 m 699 442 q 610 228 610 442 q 696 17 610 17 q 785 231 785 17 q 699 442 785 442 m 1150 478 q 1296 400 1242 478 q 1346 229 1346 329 q 1296 60 1346 129 q 1150 -19 1242 -19 q 1004 60 1058 -19 q 954 229 954 129 q 1004 400 954 329 q 1150 478 1058 478 m 1151 442 q 1063 228 1063 442 q 1149 17 1063 17 q 1238 231 1238 17 q 1151 442 1238 442 m 831 940 l 174 -21 l 113 -21 l 769 940 l 831 940 z "},"‹":{"ha":463,"x_min":79,"x_max":383,"o":"m 383 -6 l 342 -6 l 79 314 l 342 633 l 383 633 l 215 314 l 383 -6 z "},"›":{"ha":463,"x_min":79,"x_max":383,"o":"m 79 633 l 121 633 l 383 314 l 121 -6 l 79 -6 l 247 314 l 79 633 z "},"⁄":{"ha":232,"x_min":-232,"x_max":463,"o":"m 463 939 l -171 -36 l -232 -36 l 403 939 l 463 939 z "},"™":{"ha":1361,"x_min":18,"x_max":1342,"o":"m 32 919 l 526 919 l 540 783 l 517 783 q 465 867 507 847 q 363 878 439 878 l 336 878 l 336 501 q 346 422 336 440 q 417 397 361 397 l 417 372 l 143 372 l 143 397 q 214 422 199 397 q 224 501 224 440 l 224 878 l 196 878 q 94 867 121 878 q 42 783 51 847 l 18 783 l 32 919 m 782 919 l 967 532 l 1147 919 l 1342 919 l 1342 894 q 1271 869 1286 894 q 1261 790 1261 851 l 1261 501 q 1271 422 1261 440 q 1342 397 1286 397 l 1342 372 l 1068 372 l 1068 397 q 1139 422 1124 397 q 1149 501 1149 440 l 1149 819 l 1146 819 l 939 372 l 917 372 l 710 813 l 707 813 l 707 501 q 717 422 707 440 q 788 397 732 397 l 788 372 l 585 372 l 585 397 q 656 422 640 397 q 665 501 665 440 l 665 790 q 656 869 665 851 q 585 894 640 894 l 585 919 l 782 919 z "},"­":{"ha":783,"x_min":28,"x_max":757,"o":"m 757 433 l 28 433 l 28 489 l 757 489 l 757 433 z "},"·":{"ha":347,"x_min":99,"x_max":249,"o":"m 174 385 q 121 407 143 385 q 99 460 99 429 q 121 513 99 492 q 174 535 143 535 q 227 513 206 535 q 249 460 249 492 q 227 407 249 429 q 174 385 206 385 z "},"":{"ha":772,"x_min":36,"x_max":754,"o":"m 269 621 l 606 621 q 622 624 611 621 q 632 625 625 624 q 640 625 638 625 l 658 625 l 658 118 q 682 42 658 61 q 754 25 701 26 l 754 0 l 450 0 l 450 25 q 524 44 503 26 q 546 118 546 61 l 546 457 q 533 556 546 542 q 443 571 519 571 l 269 571 l 269 182 q 283 61 269 86 q 385 25 304 25 l 385 0 l 39 0 l 39 25 q 142 61 121 25 q 157 182 157 86 l 157 571 l 36 571 l 36 621 l 157 621 l 157 658 q 239 883 157 799 q 442 964 318 964 q 589 927 533 964 q 644 838 644 890 q 629 800 644 815 q 592 785 614 785 q 506 852 554 785 q 407 919 458 919 q 318 878 354 919 q 269 694 269 821 l 269 621 z "},"":{"ha":772,"x_min":36,"x_max":754,"o":"m 658 964 l 658 118 q 682 42 658 61 q 754 25 701 26 l 754 0 l 450 0 l 450 25 q 524 44 503 26 q 546 118 546 61 l 546 571 l 269 571 l 269 182 q 283 61 269 86 q 385 25 304 25 l 385 0 l 39 0 l 39 25 q 142 61 121 25 q 157 182 157 86 l 157 571 l 36 571 l 36 621 l 157 621 q 242 899 157 810 q 403 964 304 964 q 539 914 478 964 l 628 964 l 658 964 m 546 621 l 546 819 l 543 819 q 500 799 528 799 q 433 856 474 799 q 356 914 392 914 q 293 880 317 914 q 269 807 269 846 l 269 621 l 546 621 z "}}}
